<?xml version="1.0" standalone="no"?>
<!DOCTYPE svg PUBLIC "-//W3C//DTD SVG 20010904//EN"
 "http://www.w3.org/TR/2001/REC-SVG-20010904/DTD/svg10.dtd">
<svg version="1.0" xmlns="http://www.w3.org/2000/svg"
 width="3840.000000pt" height="3840.000000pt" viewBox="0 0 3840.000000 3840.000000"
 preserveAspectRatio="xMidYMid meet">

<g transform="translate(0.000000,3840.000000) scale(0.100000,-0.100000)"
fill="#000000" stroke="none">
<path d="M23028 37770 c-325 -72 -716 -410 -1078 -933 -63 -92 -133 -195 -154
-229 -85 -134 -136 -220 -136 -225 0 -3 -9 -17 -19 -31 -10 -15 -40 -68 -66
-117 -26 -50 -53 -97 -60 -105 -7 -8 -25 -40 -40 -70 -15 -30 -74 -132 -131
-227 -57 -95 -104 -175 -104 -179 0 -3 -33 -68 -73 -143 -77 -142 -93 -171
-146 -259 -17 -29 -31 -55 -31 -57 0 -4 -91 -150 -161 -260 -61 -94 -82 -127
-94 -147 -12 -19 -198 -294 -285 -418 -32 -47 -79 -103 -103 -125 -24 -22 -53
-53 -63 -70 -10 -16 -45 -63 -78 -104 l-59 -74 -281 7 c-328 8 -614 -9 -971
-59 -60 -8 -159 -22 -220 -30 -231 -30 -411 -60 -520 -85 -194 -45 -388 -93
-425 -105 -25 -8 -79 -24 -120 -36 -96 -27 -243 -76 -295 -99 -22 -10 -105
-46 -185 -80 -80 -34 -203 -91 -275 -125 -126 -61 -157 -75 -295 -137 -35 -16
-121 -60 -190 -97 -69 -38 -169 -91 -222 -119 -108 -56 -307 -185 -440 -285
-48 -37 -124 -92 -170 -123 -46 -31 -108 -78 -139 -103 -47 -38 -180 -144
-249 -198 -207 -163 -255 -207 -590 -542 -238 -239 -486 -508 -595 -646 -21
-27 -56 -68 -76 -90 -42 -44 -137 -160 -350 -425 -77 -96 -222 -276 -322 -399
-100 -123 -193 -240 -207 -260 -14 -20 -59 -81 -100 -135 -304 -400 -430 -613
-477 -800 -15 -61 -15 -71 0 -131 18 -72 112 -273 173 -372 42 -66 153 -197
161 -189 7 6 -21 71 -75 176 -45 86 -96 210 -87 210 3 0 21 -35 41 -77 20 -42
66 -125 102 -183 36 -58 75 -122 87 -143 15 -25 60 -65 133 -118 130 -92 154
-104 183 -86 17 10 19 19 14 53 -3 22 -1 53 5 69 l11 28 24 -33 c14 -19 25
-38 25 -43 0 -5 14 -39 31 -75 61 -131 132 -370 158 -532 25 -151 8 -489 -35
-720 -32 -170 -155 -515 -288 -805 -63 -137 -126 -280 -157 -353 -12 -30 -74
-156 -136 -280 -427 -847 -414 -821 -457 -968 -15 -50 -35 -115 -46 -145 -11
-29 -20 -58 -20 -64 0 -6 60 -23 133 -38 144 -31 212 -52 327 -102 105 -46
208 -85 225 -85 8 0 47 32 87 70 40 39 96 84 123 99 93 54 210 62 370 26 33
-7 94 -19 135 -25 41 -7 91 -21 110 -31 42 -23 69 -24 98 -3 17 12 26 13 37 4
8 -7 15 -7 19 -1 4 5 2 12 -4 16 -20 12 5 91 76 243 19 41 34 81 34 90 0 10 7
26 15 36 8 10 12 23 9 28 -16 25 99 297 212 502 119 217 310 528 414 676 56
80 111 163 122 185 12 22 45 80 75 130 94 153 218 416 297 628 35 93 145 467
180 607 8 36 34 173 56 305 64 379 95 507 172 705 159 407 424 754 752 984
164 116 442 259 591 306 236 74 332 96 490 111 418 41 976 -81 1507 -330 46
-21 94 -42 108 -46 14 -4 70 -31 125 -59 110 -56 155 -75 242 -105 62 -21 120
-44 168 -66 92 -42 174 -70 270 -94 22 -5 87 -21 145 -35 58 -14 125 -30 150
-37 307 -79 416 -98 600 -105 111 -4 204 -2 254 5 44 6 81 10 82 8 9 -8 -78
-55 -156 -84 -258 -97 -524 -97 -958 -2 -146 31 -160 35 -377 99 -161 47 -352
118 -510 190 -22 10 -105 44 -185 75 -80 31 -154 60 -165 65 -78 36 -217 87
-341 126 -390 121 -686 147 -1104 99 -209 -25 -306 -50 -492 -126 -58 -24
-240 -120 -297 -156 -185 -118 -398 -317 -533 -498 -167 -223 -345 -675 -381
-965 l-6 -45 20 24 c11 13 40 63 66 110 81 150 174 304 219 361 131 166 513
509 717 641 174 114 396 213 627 281 98 28 118 31 310 35 226 6 412 -10 568
-48 281 -67 590 -165 902 -285 146 -56 200 -74 385 -128 50 -15 112 -33 139
-41 26 -8 59 -15 71 -15 13 0 25 -5 27 -11 2 -7 26 -13 53 -14 28 -1 120 -8
205 -16 222 -19 741 -18 902 2 70 8 133 20 140 26 18 14 68 25 68 15 0 -4 -37
-27 -82 -51 -46 -24 -105 -58 -133 -76 -65 -41 -117 -59 -240 -81 -86 -16
-153 -19 -465 -19 -327 0 -379 2 -503 22 -76 12 -141 24 -146 27 -4 3 -32 9
-62 15 -128 22 -541 135 -764 209 -163 55 -203 65 -405 106 -339 68 -351 70
-580 70 l-215 1 -147 -38 c-202 -51 -294 -84 -444 -161 -156 -79 -259 -146
-385 -248 -98 -78 -286 -272 -386 -395 -54 -67 -223 -315 -223 -327 0 -4 -20
-42 -44 -84 -53 -93 -134 -274 -211 -472 -103 -264 -163 -414 -205 -510 -57
-131 -197 -408 -259 -510 -28 -47 -51 -88 -51 -91 0 -25 -339 -585 -514 -849
-60 -91 -139 -219 -175 -285 -62 -112 -86 -159 -156 -308 -36 -76 -147 -277
-192 -345 -40 -61 -63 -85 -117 -119 -44 -28 -66 -28 -221 2 -44 9 -136 18
-205 22 -178 8 -222 -5 -420 -127 -30 -19 -56 -38 -58 -42 -7 -15 -50 -8 -163
28 -278 87 -412 123 -456 124 -39 0 -40 -8 -17 -110 17 -75 45 -110 122 -149
69 -36 144 -135 225 -297 104 -207 220 -335 390 -428 102 -56 197 -21 212 78
5 29 1 76 -10 133 -21 107 -14 211 19 286 25 58 96 136 145 162 35 18 190 54
233 55 47 0 151 40 201 76 92 67 253 291 313 434 41 99 74 166 74 149 0 -26
-41 -162 -72 -239 -58 -145 -67 -166 -104 -245 -49 -107 -117 -209 -157 -238
-47 -34 -127 -62 -275 -93 -204 -43 -242 -68 -261 -176 -11 -67 -8 -92 17
-148 24 -53 21 -161 -6 -242 -13 -36 -29 -71 -36 -77 -28 -23 -49 -120 -43
-195 9 -120 112 -363 178 -420 60 -51 242 -136 358 -168 228 -62 510 -133 656
-163 33 -7 114 -25 180 -39 350 -78 498 -98 710 -99 276 -1 520 49 881 181
174 64 354 167 693 396 96 64 340 190 392 201 18 4 40 11 49 16 26 14 152 38
252 49 121 12 138 13 138 0 0 -5 -6 -10 -14 -10 -16 0 -174 -52 -230 -75 -63
-26 -228 -103 -261 -121 -16 -9 -57 -30 -90 -47 -60 -31 -156 -91 -315 -197
-47 -31 -132 -88 -190 -126 -207 -138 -367 -218 -600 -297 -267 -92 -407 -112
-730 -104 -242 6 -247 6 -755 107 -334 66 -522 114 -695 175 -265 94 -264 94
-322 19 -24 -31 -62 -70 -85 -87 -41 -29 -43 -30 -90 -17 -65 18 -136 53 -278
137 -147 88 -204 130 -321 237 -137 127 -245 278 -333 469 -90 193 -102 222
-122 290 -31 105 -59 288 -61 397 -2 110 15 160 56 160 29 0 50 -47 60 -135
27 -233 66 -435 96 -500 5 -11 27 -58 48 -105 37 -81 144 -270 195 -345 54
-79 373 -386 415 -399 19 -6 34 3 87 53 45 42 78 64 107 71 64 16 68 18 68 32
0 8 -23 45 -50 83 -63 85 -68 97 -125 269 -32 100 -45 156 -45 197 0 59 -16
89 -47 89 -8 0 -31 14 -50 30 -18 17 -44 30 -58 30 -32 0 -156 85 -236 162
-61 58 -138 166 -233 328 -78 131 -108 164 -194 209 -139 72 -231 196 -253
342 -31 199 78 548 322 1024 47 94 119 233 158 310 84 164 190 401 306 680 45
110 103 247 127 305 25 58 43 111 41 118 -3 6 -13 12 -24 12 -53 0 -227 110
-311 197 -42 43 -121 182 -142 251 -14 43 -31 16 -38 -59 -4 -41 -14 -146 -24
-235 -12 -119 -15 -216 -12 -370 5 -209 14 -275 63 -457 28 -109 12 -277 -28
-285 -18 -4 -25 14 -32 88 -4 30 -11 82 -16 115 -71 429 -72 692 -9 1330 10
105 22 243 26 308 3 64 10 119 14 122 15 9 32 -54 56 -209 13 -89 29 -173 33
-188 22 -64 159 -277 220 -342 72 -75 172 -146 205 -146 15 0 32 18 58 63 47
79 62 130 84 285 20 145 12 169 -31 90 -37 -69 -58 -89 -104 -95 -59 -8 -120
24 -179 96 -90 107 -155 243 -185 382 -36 167 -21 169 65 6 88 -166 177 -306
210 -330 32 -24 69 -17 87 15 6 13 41 47 76 77 72 60 82 83 72 180 -14 123
-130 400 -235 556 -69 103 -74 107 -234 205 -87 53 -173 117 -210 157 -67 72
-202 255 -238 325 -69 132 -84 193 -84 348 0 121 3 144 28 220 54 164 146 310
421 665 30 39 113 147 184 240 116 151 166 214 333 425 24 30 86 109 138 175
51 66 99 125 105 130 7 6 38 44 71 85 32 41 106 129 164 195 58 66 132 152
165 190 96 113 148 169 349 377 105 108 238 245 296 305 58 60 161 158 230
218 69 60 132 116 140 125 8 9 71 62 140 119 69 57 136 113 150 125 46 38 386
290 461 341 195 132 503 304 844 474 339 167 446 214 635 277 96 32 186 64
200 71 14 7 30 13 35 13 6 0 49 16 95 36 114 48 386 127 580 169 36 8 83 19
105 25 58 15 179 39 260 50 39 5 90 14 115 20 233 51 921 99 1421 100 290 0
307 1 323 19 38 42 8 47 -334 56 -403 10 -900 -18 -1140 -65 -52 -10 -124 -21
-159 -24 -36 -3 -114 -15 -175 -26 -61 -11 -151 -27 -201 -35 -107 -18 -294
-60 -385 -86 -36 -10 -83 -21 -105 -24 -39 -6 -98 -23 -182 -52 -72 -25 -301
-73 -346 -73 -49 0 -133 47 -262 147 -105 80 -231 170 -353 250 -57 37 -145
96 -195 130 -51 35 -118 80 -150 100 -32 21 -86 57 -120 80 -72 49 -353 229
-402 258 -19 11 -60 37 -92 58 -210 139 -302 197 -420 265 -74 42 -166 96
-206 120 -40 23 -90 52 -112 63 -49 24 -71 38 -112 67 -17 12 -34 22 -38 22
-4 0 -19 8 -33 19 -25 18 -51 32 -212 119 -36 19 -83 47 -105 62 -22 15 -74
45 -115 67 -41 22 -103 56 -137 76 -34 21 -64 37 -67 37 -4 0 -51 27 -105 60
-55 33 -102 60 -105 60 -4 0 -93 52 -199 116 -105 65 -226 135 -267 158 -112
60 -156 85 -279 155 -61 35 -125 71 -141 80 -16 9 -78 44 -137 77 -117 67
-625 325 -711 362 -72 30 -193 33 -231 5 -71 -52 -100 -202 -66 -346 20 -86
81 -235 136 -332 56 -101 160 -312 214 -440 26 -60 65 -147 86 -193 22 -46 39
-88 39 -94 0 -12 64 -155 136 -304 24 -49 44 -93 44 -97 0 -4 23 -56 51 -115
28 -59 76 -163 106 -232 30 -69 58 -134 64 -145 10 -22 67 -204 103 -330 72
-248 87 -304 124 -450 125 -492 174 -712 211 -950 10 -66 24 -147 30 -180 6
-33 18 -98 27 -144 8 -46 19 -123 25 -170 11 -101 43 -299 69 -426 11 -49 22
-117 25 -150 3 -33 12 -91 20 -130 19 -96 52 -285 65 -370 5 -38 14 -86 20
-105 24 -83 2 -185 -58 -275 -15 -22 -139 -190 -277 -373 -137 -184 -281 -375
-318 -425 -38 -50 -92 -121 -121 -157 -28 -36 -85 -110 -126 -165 -91 -123
-85 -114 -115 -151 -14 -18 -25 -35 -25 -38 0 -3 -15 -29 -34 -58 -57 -91
-123 -239 -151 -342 -25 -91 -27 -110 -22 -225 6 -147 21 -196 119 -380 34
-64 71 -134 82 -156 11 -22 46 -74 77 -115 94 -125 114 -174 88 -222 -35 -65
-132 -105 -330 -137 -60 -10 -99 -26 -99 -41 0 -29 184 -112 272 -123 37 -4
76 -42 104 -102 25 -53 30 -106 14 -170 -6 -22 -19 -130 -30 -240 -11 -110
-24 -222 -30 -250 -55 -268 -50 -906 11 -1300 5 -38 11 -144 12 -235 l1 -165
-43 -110 c-24 -60 -58 -146 -77 -190 -47 -113 -115 -290 -179 -465 -13 -36
-36 -112 -51 -170 -24 -91 -28 -125 -28 -250 -1 -168 12 -217 97 -381 47 -92
50 -101 63 -225 28 -261 73 -501 114 -604 9 -25 23 -63 30 -85 60 -193 315
-542 479 -655 28 -19 102 -72 164 -116 61 -45 173 -113 247 -150 144 -74 164
-92 189 -175 34 -110 97 -257 133 -309 13 -19 60 -87 103 -150 157 -230 285
-364 524 -548 52 -41 293 -164 386 -198 306 -113 501 -148 830 -148 254 0 329
9 618 78 250 60 354 96 694 239 45 19 114 55 155 80 64 40 283 149 521 261
135 63 157 60 157 -22 0 -101 -116 -520 -208 -747 -129 -321 -164 -388 -253
-482 -38 -40 -155 -106 -210 -117 -74 -16 -243 -181 -400 -392 -57 -77 -133
-167 -169 -201 -137 -130 -231 -211 -351 -306 -68 -54 -187 -147 -264 -208
-77 -61 -171 -129 -210 -151 -112 -66 -387 -271 -466 -348 -52 -51 -59 -63
-89 -155 -67 -213 -107 -232 -198 -99 -35 52 -118 266 -146 376 -54 216 -68
370 -67 748 0 190 6 381 11 425 6 44 14 132 17 195 4 97 3 118 -10 129 -25 20
-51 5 -110 -62 -30 -34 -91 -102 -134 -152 -98 -111 -146 -182 -273 -406 -64
-112 -81 -148 -133 -279 -52 -131 -89 -320 -116 -588 -16 -154 -43 -203 -94
-169 -25 16 -155 268 -188 365 -11 31 -23 94 -26 140 -4 58 -12 90 -24 105
l-17 22 -29 -21 c-67 -49 -246 -321 -291 -440 -6 -16 -24 -65 -41 -108 -17
-44 -35 -105 -41 -135 -6 -31 -18 -76 -26 -101 -7 -25 -23 -105 -34 -178 -36
-234 -49 -270 -91 -257 -37 12 -91 -7 -129 -45 -36 -36 -47 -58 -107 -220 -77
-208 -99 -464 -67 -805 31 -334 31 -335 -71 -335 -47 0 -69 -5 -86 -19 -23
-18 -24 -25 -22 -128 4 -256 99 -589 216 -752 18 -25 61 -93 95 -151 50 -86
63 -118 72 -177 6 -40 9 -77 5 -82 -3 -6 -6 -57 -6 -114 -1 -101 1 -107 44
-214 80 -194 91 -210 247 -346 104 -90 142 -117 226 -156 97 -46 184 -110 184
-135 0 -17 -44 -56 -107 -95 -94 -59 -85 -110 35 -188 31 -20 86 -60 122 -88
75 -60 173 -117 275 -160 101 -43 123 -59 109 -82 -5 -10 -30 -28 -53 -40 -24
-12 -46 -24 -49 -27 -10 -11 23 -38 79 -67 32 -16 60 -33 64 -39 3 -6 39 -28
78 -51 228 -127 350 -233 416 -361 9 -18 36 -65 59 -105 23 -39 42 -74 42 -77
0 -22 219 -359 337 -519 230 -309 333 -443 414 -537 41 -47 94 -110 119 -140
25 -30 55 -66 68 -80 13 -14 55 -63 95 -110 40 -47 145 -159 233 -250 89 -91
179 -184 200 -208 120 -131 458 -478 514 -528 19 -16 71 -64 116 -105 44 -40
129 -117 190 -169 60 -52 145 -129 189 -171 44 -42 132 -121 195 -176 63 -55
135 -119 160 -144 25 -24 72 -67 104 -94 33 -28 96 -86 140 -130 98 -97 204
-197 395 -370 78 -71 225 -207 326 -302 209 -195 225 -208 259 -199 28 7 69
73 110 178 72 184 375 744 446 823 18 20 87 121 282 410 59 88 125 180 146
205 21 25 67 83 102 130 36 47 73 94 84 105 10 11 62 74 115 140 292 366 385
469 696 780 177 177 396 385 465 441 19 16 37 31 40 34 3 3 66 53 140 110 74
57 153 118 175 136 22 18 72 59 110 91 39 32 95 76 125 99 30 22 82 60 115 85
33 24 95 68 138 96 43 29 123 90 179 135 112 92 208 162 406 298 137 94 194
153 207 215 3 16 12 83 20 149 21 172 11 164 285 217 152 29 418 141 532 224
26 19 73 69 104 110 70 93 101 112 280 171 296 97 516 200 764 356 52 33 108
69 124 81 16 11 167 112 335 225 168 112 322 218 341 236 19 18 58 49 85 71
28 21 77 64 110 95 33 32 92 79 130 105 65 45 115 82 175 130 13 11 61 54 105
95 44 41 114 104 155 140 275 239 460 422 740 730 47 51 143 154 214 229 71
75 156 170 189 211 33 41 79 98 102 125 23 28 80 100 126 160 87 116 214 273
234 290 6 6 30 38 53 72 23 34 64 88 90 120 56 67 252 363 252 379 0 3 13 24
28 47 16 23 52 87 82 142 29 55 77 141 107 190 30 50 59 97 64 105 5 8 34 60
65 115 32 55 68 118 81 140 27 46 65 126 176 370 30 66 73 158 95 205 22 47
49 110 60 140 11 30 29 80 41 110 46 117 73 199 100 305 61 238 82 364 82 485
0 93 -4 117 -34 210 -31 95 -80 217 -124 310 -32 67 -88 156 -154 245 -75 101
-104 168 -166 375 -101 341 -136 483 -173 687 -11 64 -31 162 -44 217 -13 56
-36 155 -51 221 -15 66 -33 143 -41 170 -8 28 -25 124 -39 215 -27 176 -72
371 -105 458 -21 55 -62 126 -79 137 -22 13 -41 114 -51 264 -6 86 -19 312
-30 502 -11 190 -27 418 -35 505 -8 87 -20 213 -25 279 -11 128 -18 182 -55
395 -13 74 -26 155 -30 180 -3 25 -21 140 -40 255 -19 116 -42 257 -51 315 -9
58 -23 132 -31 165 -8 33 -34 152 -58 265 -40 192 -61 285 -105 470 -10 41
-28 118 -39 170 -46 200 -113 468 -137 548 -14 45 -29 108 -35 139 -6 31 -24
91 -41 132 -17 42 -47 123 -68 181 -135 377 -250 684 -342 910 -30 74 -58 149
-62 165 -7 26 -43 118 -151 385 -15 36 -38 90 -52 120 -14 30 -31 71 -38 90
-22 61 -99 226 -234 502 -72 147 -164 345 -205 440 -41 95 -89 205 -106 243
-18 39 -40 93 -50 120 -10 28 -28 75 -40 105 -12 30 -30 80 -41 110 -11 30
-32 84 -48 120 -40 89 -97 241 -120 320 -10 36 -31 97 -46 135 -39 103 -59
156 -105 290 l-41 120 3 390 c5 672 -4 1046 -33 1295 -5 47 -18 168 -29 270
-11 102 -31 248 -44 325 -13 77 -29 172 -36 210 -52 317 -95 515 -145 670 -7
22 -23 74 -35 115 -56 194 -139 425 -197 550 -19 41 -49 113 -67 160 -47 120
-322 656 -385 749 -10 14 -39 60 -66 101 -26 41 -65 95 -85 120 -20 25 -74 94
-120 155 -228 301 -454 507 -670 612 -241 118 -355 148 -595 157 -105 4 -147
2 -217 -14z m372 -61 c210 -29 534 -207 748 -413 190 -183 457 -523 584 -746
91 -157 348 -671 348 -694 0 -3 36 -87 80 -187 83 -190 148 -374 199 -569 16
-63 41 -158 55 -210 55 -211 152 -745 181 -1000 3 -30 12 -98 20 -150 73 -498
72 -1298 0 -1730 -8 -47 -19 -139 -24 -205 -19 -223 -41 -420 -56 -480 -8 -33
-24 -112 -36 -175 -25 -133 -55 -266 -75 -330 -18 -60 -93 -322 -109 -385 -14
-53 -79 -247 -94 -280 -5 -11 -19 -45 -31 -75 -43 -105 -157 -286 -222 -353
-44 -44 -54 -27 -15 23 45 56 138 209 167 275 12 27 25 68 28 90 2 22 10 46
16 54 6 8 11 27 12 43 1 16 8 37 17 46 8 9 22 49 32 87 9 39 21 75 26 81 5 6
6 13 3 16 -5 6 18 129 31 161 4 9 3 17 -2 17 -9 0 -36 -56 -75 -155 -11 -27
-24 -59 -29 -70 -4 -11 -13 -38 -19 -60 -5 -22 -14 -47 -19 -55 -22 -33 -24
24 -4 89 11 36 28 95 38 131 10 36 23 85 31 110 16 55 36 149 74 350 16 85 40
207 54 270 36 170 102 631 118 820 18 226 18 1178 0 1345 -17 156 -50 424 -61
500 -23 153 -73 454 -81 485 -4 19 -11 58 -15 85 -16 124 -52 285 -111 495
-64 231 -103 344 -182 540 -17 41 -56 140 -87 220 -70 179 -222 486 -338 680
-196 331 -446 635 -688 837 -109 91 -216 152 -363 207 -277 105 -450 83 -717
-93 -103 -68 -300 -259 -411 -399 -90 -114 -229 -317 -303 -442 -21 -36 -77
-126 -124 -200 -47 -74 -121 -196 -164 -270 -224 -380 -217 -366 -385 -685
-47 -88 -99 -182 -117 -210 -18 -27 -74 -120 -126 -205 -213 -354 -250 -414
-377 -600 -223 -329 -370 -535 -478 -669 -33 -42 -100 -128 -149 -191 -388
-505 -786 -847 -1188 -1021 -64 -27 -150 -58 -190 -68 -83 -22 -218 -31 -223
-16 -2 6 112 87 253 182 243 162 303 207 532 406 135 117 368 339 420 400 24
29 72 81 106 117 92 96 264 309 488 607 114 152 286 413 407 618 61 103 192
316 259 423 131 206 125 195 348 612 64 118 121 222 127 230 6 8 22 35 35 60
129 245 480 809 569 912 16 18 52 65 82 103 110 146 305 339 486 481 107 84
270 152 439 185 90 17 134 17 275 -2z m-11280 -933 c134 -49 422 -191 585
-286 106 -63 354 -200 360 -200 4 0 67 -36 155 -90 8 -5 69 -39 135 -76 66
-37 167 -95 225 -129 203 -120 346 -203 435 -250 50 -26 137 -76 195 -110 58
-34 161 -95 229 -135 158 -93 395 -229 581 -334 167 -95 531 -316 625 -381 36
-24 111 -71 167 -105 182 -109 351 -217 448 -288 52 -38 141 -100 198 -138
265 -177 308 -205 322 -211 27 -12 234 -169 259 -196 13 -14 21 -33 18 -41 -8
-21 -115 -58 -148 -51 -38 9 -154 84 -284 185 -61 47 -146 107 -190 134 -44
27 -197 126 -340 221 -143 94 -305 198 -360 230 -55 32 -152 92 -215 133 -146
95 -231 146 -350 212 -52 29 -148 86 -213 126 -65 41 -148 92 -185 113 -37 21
-188 107 -337 193 -148 85 -331 186 -405 224 -74 39 -167 91 -206 116 -39 26
-116 71 -170 101 -119 65 -265 149 -394 227 -94 57 -131 77 -365 202 -66 36
-185 103 -265 150 -80 47 -179 103 -220 125 -81 44 -147 82 -224 131 -54 35
-76 40 -76 18 0 -25 86 -222 116 -267 207 -304 361 -524 409 -584 37 -46 193
-287 332 -515 52 -85 134 -217 181 -293 190 -300 381 -645 462 -831 32 -72 91
-199 133 -282 41 -84 78 -163 82 -175 4 -13 27 -64 50 -114 23 -49 57 -124 74
-165 18 -41 36 -84 41 -95 5 -11 26 -63 46 -115 20 -52 44 -113 54 -135 21
-48 57 -190 106 -415 80 -372 95 -456 95 -537 0 -76 -2 -85 -28 -118 -15 -19
-31 -35 -35 -35 -11 0 -46 103 -58 171 -24 141 -53 273 -101 464 -126 497
-204 707 -412 1115 -71 140 -148 286 -170 324 -22 38 -62 115 -90 170 -27 56
-64 124 -81 151 -17 28 -44 75 -60 105 -74 139 -265 446 -321 515 -40 50 -316
455 -378 556 -26 41 -58 86 -72 99 -14 13 -25 29 -25 37 0 7 -5 13 -11 13 -6
0 -9 -6 -6 -12 63 -159 113 -273 177 -403 78 -161 114 -247 189 -450 23 -60
45 -119 50 -130 117 -270 243 -628 299 -850 116 -460 135 -545 166 -735 22
-134 59 -390 72 -500 24 -194 75 -531 114 -745 96 -526 102 -603 48 -652 -26
-24 -33 -11 -52 106 -24 141 -76 425 -93 506 -15 76 -31 167 -68 405 -13 85
-31 200 -40 255 -8 55 -20 129 -25 165 -17 116 -39 253 -55 335 -8 44 -22 118
-31 165 -78 429 -270 1154 -381 1440 -47 122 -115 285 -153 365 -34 72 -90
200 -240 550 -126 292 -264 579 -368 763 -98 173 -128 242 -148 346 -21 108
-14 148 36 198 46 47 84 49 180 14z m9648 -2618 c-5 -18 -16 -46 -23 -63 -40
-91 -114 -291 -162 -440 -31 -93 -64 -192 -73 -220 -53 -155 -124 -525 -102
-525 18 0 24 18 32 98 4 42 13 95 20 117 6 22 17 65 24 95 7 30 20 73 28 95 8
22 35 100 59 173 24 73 45 128 47 123 2 -6 -17 -100 -42 -208 -25 -109 -50
-225 -56 -258 -6 -33 -15 -76 -20 -95 -11 -44 -38 -215 -55 -345 -14 -111 -8
-182 26 -302 18 -64 42 -119 142 -323 23 -46 58 -91 122 -156 125 -125 268
-217 457 -292 264 -106 384 -196 534 -403 82 -112 119 -177 199 -344 70 -146
88 -189 109 -265 7 -25 25 -75 39 -112 14 -38 23 -68 19 -68 -4 0 -42 47 -84
103 -71 95 -95 133 -196 317 -66 120 -165 285 -203 335 -47 64 -151 163 -209
200 -25 16 -132 68 -239 117 -106 49 -217 100 -245 115 -73 37 -233 154 -287
210 -103 108 -216 302 -268 462 -77 236 -65 515 39 906 12 44 25 94 30 110 26
101 64 223 89 291 111 296 151 391 224 532 31 59 41 67 25 20z m-6199 -2576
c-188 -274 -286 -430 -349 -555 -40 -78 -80 -153 -90 -167 -10 -14 -46 -79
-80 -145 -35 -66 -84 -156 -110 -200 -75 -127 -117 -207 -130 -248 -7 -21 -39
-92 -71 -157 -33 -66 -78 -168 -101 -227 -22 -59 -53 -139 -68 -178 -87 -223
-149 -387 -162 -435 -17 -60 -103 -402 -123 -490 -49 -215 -66 -301 -84 -420
-11 -74 -25 -171 -31 -214 -19 -127 -31 -139 -49 -49 -18 93 -14 363 10 525
51 358 168 793 310 1149 86 218 252 552 379 766 61 100 110 185 110 187 0 9
154 253 203 321 28 40 81 116 117 170 133 197 360 479 368 455 2 -6 -20 -46
-49 -88z m10226 -164 c35 -75 84 -195 115 -283 24 -70 145 -392 165 -440 9
-22 64 -135 121 -252 57 -117 104 -214 104 -217 0 -7 76 -168 165 -351 85
-174 267 -580 280 -625 7 -25 65 -168 90 -225 42 -93 61 -141 145 -350 50
-126 98 -244 105 -260 19 -43 67 -172 135 -365 32 -91 77 -217 100 -280 97
-264 228 -735 300 -1075 11 -55 34 -156 51 -225 47 -195 57 -241 68 -300 10
-52 28 -145 51 -255 113 -544 153 -772 205 -1160 27 -211 78 -873 92 -1207 4
-108 3 -148 -6 -148 -6 0 -12 20 -13 50 -3 91 -5 106 -17 128 -8 16 -8 22 -1
22 6 0 1 15 -12 32 -17 25 -23 48 -25 98 -1 36 -2 68 -2 73 -1 4 -5 7 -9 7 -5
0 -7 -12 -4 -28 2 -18 -4 -35 -17 -51 -12 -13 -21 -29 -21 -35 0 -6 -3 -6 -9
0 -5 5 -12 92 -15 193 -4 101 -8 187 -11 190 -2 4 -5 42 -6 86 -1 44 -6 89
-10 101 -4 11 -12 63 -18 115 -7 52 -20 148 -31 214 -10 66 -23 156 -30 200
-6 44 -15 100 -20 125 -6 25 -17 92 -25 150 -49 356 -118 735 -219 1200 -8 36
-17 83 -21 105 -19 128 -89 411 -135 545 -4 14 -25 79 -45 145 -20 66 -68 219
-107 340 -38 121 -83 263 -99 315 -17 52 -57 176 -90 275 -200 599 -242 721
-250 729 -5 6 -9 16 -9 22 0 12 -31 81 -135 299 -142 298 -185 392 -185 399 0
3 -28 63 -61 133 -73 153 -96 204 -116 262 -8 24 -74 166 -147 315 -135 276
-163 334 -189 396 -8 19 -20 49 -27 65 -24 58 -70 210 -70 235 -1 14 -7 36
-15 50 -21 36 -19 49 6 43 16 -4 20 -2 17 8 -3 8 -13 14 -22 14 -10 0 -22 8
-27 18 -12 20 10 24 29 5 9 -9 12 -8 12 6 0 9 -4 26 -10 36 -5 10 -13 35 -16
56 -3 21 -12 47 -19 58 -8 12 -19 43 -25 71 -6 27 -17 56 -25 65 -22 25 -48
210 -30 210 3 0 21 -33 40 -72z m-8060 -93 c297 -64 418 -100 801 -243 266
-99 354 -134 479 -192 33 -15 92 -40 130 -55 39 -14 86 -33 105 -40 135 -55
496 -169 620 -197 270 -60 649 -63 925 -6 147 31 155 31 155 19 0 -11 -154
-92 -250 -131 -30 -12 -64 -26 -75 -31 -82 -35 -342 -69 -527 -69 -367 0 -660
78 -1258 335 -356 153 -614 237 -937 306 l-198 43 -245 0 -245 -1 -143 -36
c-315 -81 -588 -214 -822 -401 -87 -69 -294 -277 -419 -421 -113 -130 -286
-376 -388 -550 -124 -214 -301 -559 -364 -710 -17 -41 -35 -75 -40 -75 -54 0
48 430 167 700 69 156 272 534 347 645 301 446 527 659 955 902 78 44 339 147
437 171 93 24 230 50 295 56 108 10 417 -2 495 -19z m-9 -1025 c267 -18 718
-106 919 -179 311 -112 432 -157 520 -193 55 -22 176 -72 269 -110 94 -38 195
-78 225 -88 31 -11 81 -29 111 -40 30 -12 96 -34 145 -49 83 -26 121 -37 260
-75 55 -15 203 -47 305 -66 36 -7 171 -15 301 -17 197 -4 251 -2 325 12 118
23 280 87 321 127 93 90 18 -82 -79 -181 -131 -134 -343 -195 -673 -196 -247
0 -445 34 -730 125 -55 18 -120 38 -145 45 -137 42 -370 123 -470 165 -221 92
-297 119 -530 190 -129 39 -266 82 -305 95 -257 87 -564 129 -940 129 -273 0
-311 -5 -585 -70 -188 -45 -231 -57 -313 -88 -219 -84 -406 -207 -645 -424
-160 -145 -253 -258 -377 -456 -147 -236 -342 -613 -370 -713 -8 -29 -22 -77
-31 -105 -8 -29 -24 -84 -34 -121 -10 -38 -21 -71 -24 -75 -10 -9 -7 172 4
255 13 97 53 276 90 408 133 476 430 892 885 1243 276 211 527 317 970 407
250 51 377 61 601 45z m7399 -49 c3 -5 1 -12 -5 -16 -5 -3 -10 1 -10 9 0 18 6
21 15 7z m284 -395 c1 -5 -8 -1 -19 9 -12 11 -20 30 -19 49 l0 31 19 -40 c10
-22 19 -44 19 -49z m21 -26 c0 -5 -2 -10 -4 -10 -3 0 -8 5 -11 10 -3 6 -1 10
4 10 6 0 11 -4 11 -10z m60 -138 c0 -8 6 -28 14 -45 7 -18 33 -93 56 -167 23
-74 46 -144 51 -155 4 -11 12 -42 17 -70 5 -27 21 -90 36 -140 49 -163 64
-253 115 -655 30 -240 46 -655 32 -863 -15 -212 -63 -586 -97 -742 -46 -211
-174 -607 -279 -860 -7 -16 -34 -82 -60 -145 -74 -182 -126 -297 -172 -378
-24 -42 -43 -77 -43 -79 0 -22 -309 -523 -412 -668 -262 -370 -564 -716 -828
-948 -63 -56 -120 -106 -126 -112 -17 -15 -177 -144 -273 -220 -79 -62 -183
-137 -321 -230 -51 -35 -259 -170 -508 -329 -67 -42 -258 -142 -593 -307 -53
-26 -139 -66 -190 -87 -52 -22 -124 -54 -160 -71 -36 -17 -164 -64 -285 -104
-120 -41 -230 -79 -244 -85 -78 -33 -661 -205 -768 -226 -276 -56 -468 -93
-672 -130 -215 -40 -363 -68 -455 -85 -55 -11 -165 -31 -245 -46 -176 -31
-465 -97 -580 -131 -285 -86 -473 -152 -600 -212 -47 -22 -105 -49 -130 -60
-58 -27 -233 -121 -285 -153 -22 -14 -84 -50 -138 -80 -54 -30 -110 -61 -125
-69 -15 -8 -47 -27 -72 -41 -116 -68 -513 -259 -625 -301 -272 -103 -540 -173
-775 -204 -137 -18 -464 -14 -610 6 -226 32 -479 114 -700 225 -81 41 -272
188 -370 285 -85 85 -229 265 -284 356 -115 190 -196 355 -196 401 0 9 -7 25
-17 35 -21 24 1 24 25 0 10 -10 26 -29 35 -42 22 -32 33 -18 20 25 -10 32 -10
34 8 25 10 -6 22 -25 27 -43 7 -27 6 -32 -10 -35 -22 -4 -23 -14 -3 -52 17
-32 25 -36 42 -19 8 8 13 8 17 0 4 -6 0 -11 -10 -11 -13 0 -15 -6 -10 -32 3
-17 12 -39 20 -47 7 -9 17 -27 21 -41 13 -43 96 -172 154 -241 31 -36 70 -84
86 -107 17 -23 38 -42 48 -42 16 0 13 7 -14 43 -19 23 -36 44 -39 47 -6 5 -39
56 -88 135 -65 104 -4 49 105 -95 31 -41 99 -121 150 -177 82 -89 125 -125
230 -194 13 -9 33 -26 43 -37 10 -11 25 -22 32 -25 7 -2 9 -8 5 -13 -4 -4 -17
-2 -28 5 -12 7 -22 11 -24 9 -9 -9 36 -46 79 -67 46 -21 51 -22 62 -7 12 17
44 15 89 -4 11 -5 74 -27 140 -49 241 -81 370 -101 652 -101 116 0 247 5 290
10 221 30 519 112 750 206 72 30 134 54 137 54 8 0 213 92 251 113 11 6 49 26
85 45 65 34 265 146 286 160 6 4 38 24 70 46 32 21 83 52 114 68 30 16 62 33
70 38 8 5 29 15 45 23 17 8 96 47 176 88 157 80 220 109 235 109 5 0 63 22
129 48 66 27 170 63 230 81 61 18 121 37 135 42 47 17 334 88 460 113 104 22
333 62 665 117 283 47 756 155 1030 234 134 39 563 185 675 230 122 49 410
176 559 246 57 27 105 49 107 49 15 0 392 195 499 258 292 173 854 562 1021
708 33 29 94 80 136 115 252 209 461 419 726 728 120 141 321 409 382 509 28
48 76 122 105 165 48 70 78 122 214 367 20 36 67 135 105 220 38 85 79 178 92
205 27 61 137 364 194 535 100 304 165 622 200 980 21 216 24 647 6 835 -9 94
-18 199 -22 235 -18 206 -91 686 -129 840 -14 58 -25 113 -25 124 0 30 28 1
35 -37 3 -18 14 -54 24 -82 26 -70 71 -230 71 -252 1 -10 9 -36 20 -58 l19
-40 1 32 c0 18 -9 67 -20 110 -10 43 -33 134 -50 203 -17 69 -35 129 -41 135
-5 5 -9 18 -9 30 -1 11 -9 45 -20 75 -11 30 -19 64 -20 75 0 17 4 15 20 -10
11 -16 20 -36 20 -43z m-7067 -1559 c-7 -2 -19 -2 -25 0 -7 3 -2 5 12 5 14 0
19 -2 13 -5z m-1524 -161 c-10 -129 1 -307 26 -402 23 -90 56 -149 120 -218
62 -67 128 -104 236 -129 63 -15 72 -15 129 0 106 30 220 118 264 207 52 102
69 178 86 375 6 66 13 130 16 141 9 33 42 43 78 25 19 -10 71 -18 131 -22 127
-8 257 -26 315 -45 25 -7 97 -20 160 -29 200 -26 278 -18 354 37 22 15 42 26
44 23 18 -17 -305 -353 -442 -459 -30 -24 -83 -68 -118 -98 -102 -90 -313
-225 -463 -299 -237 -115 -530 -199 -700 -199 -103 0 -280 32 -388 69 -159 56
-239 123 -337 286 -103 170 -123 235 -75 235 14 0 25 -4 25 -10 0 -5 11 -10
25 -10 21 0 30 10 51 55 14 30 32 59 40 66 8 6 14 17 14 23 0 20 112 121 206
186 12 8 53 39 91 67 68 51 71 55 83 112 7 33 10 68 6 77 -5 14 21 60 30 52 1
-2 -2 -54 -7 -116z m1071 9 c0 -12 -25 -21 -57 -21 -21 0 -24 2 -13 15 13 16
70 21 70 6z m-1245 -30 c-11 -10 -78 -59 -161 -116 -81 -56 -197 -183 -230
-253 -31 -64 -38 -72 -48 -46 -22 57 133 233 304 343 52 33 100 65 105 70 6 6
17 10 25 11 9 0 10 -3 5 -9z m717 -29 c56 -32 87 -167 54 -231 -21 -39 -77
-87 -121 -101 -51 -17 -139 -8 -172 17 -15 10 -41 36 -57 57 -27 33 -31 46
-31 99 0 49 5 69 23 95 26 36 87 72 142 83 48 9 129 0 162 -19z m3692 -11 c7
-11 -22 -35 -64 -51 -19 -8 -82 -37 -140 -64 -58 -28 -130 -61 -160 -73 -141
-56 -130 -54 -565 -63 -446 -9 -590 -22 -734 -66 -122 -37 -229 -93 -356 -185
-105 -77 -163 -124 -370 -304 -50 -44 -118 -100 -151 -124 -32 -25 -75 -56
-94 -71 -19 -14 -62 -43 -95 -64 -33 -21 -82 -53 -110 -72 -116 -81 -344 -191
-505 -244 -102 -34 -278 -65 -461 -81 -74 -7 -138 -16 -143 -20 -5 -4 13 -20
39 -36 83 -49 161 -120 231 -210 37 -49 93 -117 123 -153 31 -36 90 -105 131
-155 41 -49 80 -95 85 -101 6 -6 44 -49 85 -94 113 -126 253 -232 395 -302
180 -87 337 -112 535 -85 200 27 335 113 407 262 31 64 34 76 29 136 -12 162
-172 330 -316 332 -59 1 -121 -29 -185 -91 -68 -66 -110 -90 -133 -76 -38 24
-62 75 -62 134 0 50 4 63 36 106 65 87 156 148 249 165 67 12 205 -3 275 -31
64 -25 178 -108 231 -168 44 -51 95 -144 125 -232 27 -79 24 -279 -5 -369 -24
-74 -67 -151 -121 -219 -44 -56 -192 -150 -285 -181 -155 -51 -215 -61 -359
-61 -253 1 -495 74 -706 215 -109 73 -350 333 -515 556 -312 422 -550 627
-815 702 -92 26 -228 40 -327 33 -299 -21 -550 -157 -783 -427 -138 -159 -170
-193 -198 -208 -32 -17 -38 6 -9 37 13 15 30 49 36 77 14 56 67 167 110 229
60 85 190 220 296 306 91 74 129 98 215 134 110 47 252 86 382 106 87 14 201
5 473 -36 87 -13 211 -27 275 -30 199 -11 476 32 631 98 107 44 259 127 316
170 32 25 105 77 163 116 112 76 312 236 438 350 264 238 450 351 677 411 153
41 586 57 855 32 133 -13 492 -13 565 -1 28 4 88 13 135 20 47 6 108 15 135
20 71 11 83 11 89 1z m-8814 -12 c0 -5 10 -9 22 -7 16 2 24 -3 26 -16 4 -16 0
-18 -29 -12 -39 7 -54 20 -45 35 9 14 26 14 26 0z m15940 -5171 c0 -16 -4 -28
-9 -28 -17 0 -23 20 -16 52 8 36 25 20 25 -24z m-359 -211 c-8 -8 -11 -7 -11
4 0 9 3 19 7 23 4 4 9 2 11 -4 3 -7 -1 -17 -7 -23z m139 -133 c-13 -32 -122
-195 -279 -415 -14 -20 -42 -58 -60 -85 -19 -27 -57 -76 -83 -109 -27 -33 -61
-76 -76 -95 -15 -19 -49 -62 -77 -95 -27 -33 -63 -78 -80 -100 -30 -40 -50
-64 -115 -139 -20 -23 -49 -57 -64 -76 -32 -40 -396 -420 -526 -550 -47 -47
-121 -116 -165 -155 -44 -38 -116 -105 -160 -148 -108 -105 -111 -107 -119
-107 -4 0 -22 -13 -39 -29 -106 -95 -142 -125 -235 -196 -56 -43 -101 -80 -98
-82 7 -7 46 17 46 28 0 6 4 8 9 5 5 -4 23 6 40 20 l31 26 0 -25 c0 -14 -7 -27
-15 -31 -8 -3 -15 -17 -15 -31 0 -14 -7 -28 -15 -31 -20 -8 -19 -24 0 -24 13
0 14 -4 4 -22 -9 -16 -9 -23 0 -26 19 -6 13 -42 -8 -42 -11 0 -22 -8 -25 -17
-3 -10 -20 -26 -37 -36 -17 -9 -33 -26 -36 -37 -7 -25 -60 -55 -88 -51 -19 3
-19 2 -2 -17 12 -13 15 -22 8 -27 -6 -3 -11 -1 -11 4 0 6 -9 11 -19 11 -12 0
-18 -7 -17 -17 0 -12 -7 -19 -21 -21 -17 -3 -23 -10 -23 -28 0 -13 5 -24 12
-24 6 0 9 -3 6 -6 -4 -3 -15 -1 -25 4 -17 9 -50 1 -41 -9 1 -3 -8 -16 -21 -29
-13 -14 -21 -20 -18 -14 4 7 -3 14 -18 16 -26 5 -35 -6 -12 -15 8 -4 6 -6 -4
-6 -18 -1 -52 -35 -44 -43 3 -3 -15 -11 -40 -18 -31 -9 -45 -18 -45 -30 0 -13
-6 -16 -24 -13 -19 4 -25 0 -30 -21 -3 -14 -11 -26 -16 -26 -6 0 -10 -7 -10
-16 0 -11 -6 -15 -19 -11 -14 3 -17 0 -14 -14 6 -21 -7 -25 -25 -7 -17 17 -28
0 -14 -22 18 -29 15 -33 -18 -26 -22 4 -30 2 -30 -9 0 -8 -5 -15 -10 -15 -7 0
-7 -6 0 -19 14 -26 13 -41 -3 -41 -14 0 -51 -39 -44 -47 3 -3 33 14 67 36 34
23 65 41 70 41 4 0 10 6 13 14 3 8 29 26 58 40 28 15 64 37 79 49 16 12 67 49
116 82 85 58 199 146 219 169 6 7 30 24 55 38 25 14 57 37 72 49 14 13 52 42
84 64 57 40 218 167 283 225 19 16 38 30 43 30 4 0 8 4 8 10 0 5 28 28 63 52
59 40 231 198 287 263 32 38 140 144 266 262 154 144 401 390 481 478 40 44
72 76 72 70 1 -5 -16 -28 -37 -50 -20 -22 -55 -63 -77 -90 -22 -27 -61 -70
-86 -95 -25 -26 -73 -80 -106 -121 -65 -78 -371 -383 -588 -585 -130 -122
-177 -161 -379 -322 -59 -48 -125 -100 -146 -117 -20 -16 -88 -68 -150 -115
-62 -47 -141 -106 -175 -131 -73 -55 -151 -110 -383 -267 -243 -164 -279 -187
-552 -352 -94 -56 -192 -117 -352 -217 -28 -18 -54 -31 -56 -28 -2 2 -2 16 2
30 5 18 13 25 30 25 28 0 86 50 86 75 0 12 4 14 17 7 13 -8 26 -2 55 21 21 17
38 37 38 45 0 7 9 16 20 19 11 3 20 12 20 19 0 8 7 17 15 20 8 4 15 10 15 15
0 5 -7 9 -15 9 -8 0 -15 -4 -15 -10 0 -19 -21 -10 -30 13 -5 12 -9 16 -9 10
-1 -7 -11 -13 -23 -13 -27 0 -43 -10 -51 -30 -4 -11 -6 -10 -6 4 -1 15 -4 16
-16 6 -18 -15 -85 -31 -98 -23 -5 3 1 12 12 20 12 8 21 21 21 29 0 16 -16 19
-25 4 -13 -21 -24 -9 -18 20 5 27 3 30 -20 30 -18 0 -28 8 -38 32 -12 30 -11
32 22 60 39 33 352 242 508 339 169 105 489 319 591 395 52 39 169 125 260
192 231 171 306 229 370 287 31 28 110 97 175 155 66 58 154 137 195 175 42
39 102 95 135 125 184 170 539 553 712 768 51 65 126 157 166 206 102 125 157
197 237 308 39 53 87 117 108 142 20 24 70 89 111 145 41 56 76 101 78 101 1
0 -2 -12 -7 -26z m-51 -641 c-30 -50 -94 -141 -145 -206 -22 -29 -59 -79 -82
-112 -46 -64 -151 -179 -158 -172 -2 2 31 48 73 103 42 54 109 142 148 195 81
112 175 229 182 229 2 0 -6 -17 -18 -37z m-14271 -58 c-3 -3 -9 2 -12 12 -6
14 -5 15 5 6 7 -7 10 -15 7 -18z m46 -81 c3 -8 2 -12 -4 -9 -6 3 -10 10 -10
16 0 14 7 11 14 -7z m3996 -760 c0 -91 -32 -312 -65 -445 -23 -93 -70 -237
-133 -404 -16 -44 -45 -120 -63 -170 -38 -104 -166 -358 -263 -524 -37 -62
-73 -128 -81 -147 -24 -59 -134 -239 -159 -263 -51 -48 -80 6 -52 94 9 29 47
118 85 197 38 78 80 171 95 205 14 34 36 79 48 100 36 63 73 141 133 283 31
74 63 146 71 160 36 67 166 384 189 460 4 14 13 39 20 55 19 43 39 111 79 265
20 74 39 146 42 160 9 32 23 50 40 50 11 0 14 -18 14 -76z m9278 61 c2 -1 -12
-12 -30 -24 -18 -11 -27 -21 -20 -21 6 0 12 -4 12 -10 0 -5 -5 -10 -11 -10 -7
0 -22 -11 -35 -25 -23 -25 -25 -25 -54 -10 -17 9 -29 22 -27 28 5 15 48 11 59
-5 4 -7 11 -9 15 -4 10 10 -27 37 -39 29 -6 -3 -5 4 2 16 8 16 17 20 31 16 14
-5 19 -2 19 14 0 17 5 19 38 14 20 -3 38 -7 40 -8z m-195 -110 c-3 -9 -8 -14
-10 -11 -3 3 -2 9 2 15 9 16 15 13 8 -4z m-127 -132 c-10 -10 -19 5 -10 18 6
11 8 11 12 0 2 -7 1 -15 -2 -18z m-91 -83 c3 -5 1 -10 -4 -10 -6 0 -11 5 -11
10 0 6 2 10 4 10 3 0 8 -4 11 -10z m-54 -91 c16 -8 18 -13 8 -25 -10 -12 -13
-12 -25 3 -24 32 -17 41 17 22z m-57 -38 c8 -12 -3 -41 -15 -41 -5 0 -9 7 -9
15 0 16 -25 21 -35 6 -3 -5 3 -12 14 -16 11 -3 25 -12 31 -20 11 -13 8 -15
-18 -15 -22 0 -31 6 -36 23 -7 21 -7 21 -16 2 -13 -29 -12 -35 5 -35 8 0 15
-9 15 -20 0 -11 -4 -20 -9 -20 -24 0 -41 14 -41 34 0 12 -3 16 -8 10 -4 -6
-15 -13 -24 -17 -10 -3 -18 -13 -18 -21 0 -9 6 -13 14 -10 8 3 17 1 21 -5 3
-6 16 -11 28 -11 17 -1 15 -4 -12 -16 -28 -12 -36 -12 -43 -2 -5 9 -8 6 -8
-10 0 -12 -8 -26 -17 -29 -23 -8 -33 -23 -33 -49 0 -19 -8 -22 -65 -29 -36 -3
-65 -10 -65 -15 0 -4 -7 -11 -16 -14 -10 -4 -13 -2 -8 7 11 17 -28 -14 -44
-35 -7 -10 -19 -18 -26 -18 -8 0 -16 -9 -19 -19 -3 -14 -1 -18 9 -14 8 3 14 1
14 -4 0 -14 -33 -12 -48 4 -11 11 -8 18 20 43 18 16 37 30 44 30 6 0 17 11 24
25 7 13 26 27 43 31 20 4 26 9 17 14 -10 6 -7 15 11 38 13 17 30 31 37 31 7 1
15 8 18 16 4 8 15 15 25 15 10 0 19 5 19 10 0 6 5 10 12 10 10 0 66 48 147
125 24 23 50 21 65 -4z m-524 -492 c0 -5 -7 -9 -15 -9 -9 0 -12 6 -9 15 6 15
24 11 24 -6z m24 -54 c-22 -16 -44 -19 -44 -6 0 11 18 19 44 20 20 1 20 1 0
-14z m-2101 -143 c8 -27 30 -73 50 -103 19 -30 49 -88 66 -129 18 -41 36 -84
41 -95 5 -11 31 -84 59 -162 53 -145 71 -224 92 -398 14 -106 18 -440 6 -452
-4 -3 -13 -1 -20 6 -9 11 -9 14 1 18 18 7 15 42 -8 70 -24 31 -25 43 -5 43 19
0 19 17 0 37 -12 12 -13 18 -4 29 9 11 8 18 -1 29 -20 24 -28 9 -35 -70 -8
-81 -25 -93 -24 -17 1 67 -35 356 -50 407 -5 17 -12 53 -16 80 -11 86 -44 197
-82 273 -20 39 -40 72 -44 72 -7 0 -13 -49 -24 -190 -13 -161 -50 -416 -65
-435 -4 -5 -10 -36 -13 -67 -3 -31 -15 -85 -26 -120 -11 -35 -43 -137 -72
-228 -53 -167 -118 -344 -158 -435 -58 -129 -169 -347 -211 -415 -26 -41 -73
-122 -104 -180 -32 -58 -75 -125 -95 -149 -20 -24 -58 -73 -85 -110 -27 -36
-77 -98 -110 -137 -34 -39 -92 -108 -129 -152 -38 -45 -75 -82 -82 -82 -14 0
-31 44 -27 67 5 24 106 168 184 263 73 88 130 169 220 310 19 30 71 125 116
210 44 85 95 184 114 220 114 216 321 836 373 1117 7 40 16 76 19 82 20 32 74
351 86 511 5 69 14 166 21 215 16 135 20 141 42 67z m-6890 -138 c7 -7 -59
-137 -129 -254 -74 -124 -87 -184 -81 -363 8 -261 55 -377 249 -615 149 -183
371 -330 783 -518 l60 -28 -80 -7 c-44 -4 -123 -19 -175 -33 -119 -32 -167
-33 -264 -1 -201 66 -346 173 -509 375 -118 147 -127 159 -175 255 -84 166
-140 426 -128 594 9 122 35 197 104 296 51 72 155 190 222 253 41 39 106 63
123 46z m-2517 -146 c-47 -409 -49 -940 -5 -1183 10 -55 35 -152 90 -355 30
-112 83 -248 156 -405 36 -77 83 -182 104 -234 22 -52 45 -104 53 -115 7 -12
21 -46 31 -78 l17 -56 -29 -59 c-20 -41 -35 -59 -51 -61 -12 -2 -22 2 -22 8 0
16 -53 135 -112 254 -64 128 -74 154 -174 451 -96 286 -114 354 -148 572 -40
254 -56 448 -56 673 0 121 -4 210 -9 210 -25 0 -78 -124 -181 -421 -91 -264
-94 -280 -94 -589 -1 -298 3 -328 69 -562 62 -219 88 -285 153 -395 32 -54 67
-120 77 -148 10 -27 38 -79 61 -115 45 -69 244 -274 289 -298 14 -7 30 -23 34
-34 8 -21 -1 -103 -12 -114 -9 -10 -175 117 -233 178 -130 136 -287 359 -373
528 -146 287 -225 740 -192 1105 34 370 95 575 268 898 74 139 260 397 285
397 7 0 8 -20 4 -52z m1823 -740 c32 -57 -44 -168 -206 -301 -49 -39 -95 -78
-103 -87 -8 -9 -42 -38 -75 -64 -33 -27 -118 -101 -190 -165 -201 -180 -337
-281 -383 -284 -23 -2 -27 1 -24 23 7 54 27 96 66 139 46 52 86 106 86 118 0
18 92 119 148 162 33 25 114 88 180 139 67 50 124 92 128 92 4 0 30 17 58 38
28 20 63 44 79 51 15 8 62 47 105 88 100 95 106 97 131 51z m7241 -4 c0 -4
-11 -41 -24 -83 -14 -42 -34 -107 -46 -146 -28 -91 -79 -217 -93 -232 -7 -6
-61 -28 -122 -48 -60 -21 -191 -70 -290 -110 -99 -40 -200 -80 -225 -88 -25
-9 -130 -45 -235 -82 -199 -69 -435 -141 -570 -174 -78 -18 -185 -47 -350 -91
-118 -32 -281 -66 -545 -115 -204 -37 -320 -55 -698 -105 -40 -6 -124 -13
-188 -17 l-115 -6 -67 66 c-37 36 -80 71 -97 77 -101 39 -296 70 -428 68 -43
0 -42 -1 -51 29 -9 27 -2 28 219 43 358 23 707 59 925 95 249 41 492 85 555
100 33 8 83 18 110 23 177 32 548 129 715 187 58 20 141 47 185 60 210 62 634
216 755 273 25 12 79 35 120 51 139 55 324 133 430 181 103 47 130 56 130 44z
m-10135 -302 c11 -73 44 -229 67 -307 33 -115 90 -286 104 -314 8 -14 14 -30
14 -34 0 -15 178 -373 222 -448 25 -41 78 -120 119 -176 41 -56 101 -141 134
-188 153 -219 209 -287 320 -389 64 -58 143 -122 176 -143 152 -95 168 -118
129 -180 -32 -52 -73 -40 -160 47 -8 8 -79 62 -205 157 -79 59 -135 110 -165
149 -24 32 -61 77 -81 99 -60 65 -81 96 -264 390 -22 36 -75 122 -119 191
-143 230 -295 586 -321 752 -4 23 -11 42 -15 42 -16 0 -21 -39 -15 -107 3 -38
2 -88 -3 -113 l-9 -45 -12 30 c-7 17 -16 50 -20 75 l-7 45 -12 -40 c-22 -74
-35 -396 -22 -545 9 -116 17 -154 56 -267 59 -177 81 -213 285 -488 72 -97
231 -248 314 -298 44 -26 116 -73 160 -103 74 -50 229 -134 251 -134 5 -1 27
-9 49 -20 22 -11 49 -20 60 -20 37 -1 157 -38 172 -53 16 -16 31 -73 25 -99
-5 -26 -43 -23 -158 11 -156 45 -269 93 -404 171 -69 40 -168 98 -220 128
-109 64 -104 60 -181 131 -70 64 -227 257 -293 358 -97 150 -196 379 -243 558
-15 58 -18 110 -18 305 1 206 3 247 23 336 23 102 84 296 100 318 5 6 26 52
46 101 54 129 88 181 107 169 5 -2 11 -26 14 -52z m11498 -142 c51 -192 62
-282 62 -495 0 -206 -1 -216 -57 -460 -49 -218 -177 -486 -290 -606 -32 -34
-60 -71 -64 -83 -9 -30 -168 -182 -266 -256 -46 -34 -101 -76 -122 -93 -21
-18 -60 -45 -85 -62 -25 -16 -48 -32 -51 -35 -3 -3 -37 -22 -76 -42 -46 -24
-79 -35 -93 -31 -15 4 -21 1 -19 -8 4 -17 -24 -19 -29 -2 -5 14 37 54 49 47 4
-3 8 -12 8 -20 0 -18 16 -18 23 0 3 8 1 17 -6 20 -8 3 -4 11 10 24 23 20 20
40 -4 21 -10 -9 -13 -8 -13 3 0 8 18 27 41 44 22 16 59 46 82 66 23 21 49 38
57 38 8 0 49 32 90 70 41 38 109 100 150 137 124 112 276 299 329 405 12 24
26 50 31 58 5 8 11 22 14 30 3 8 10 22 15 30 30 49 88 217 111 320 6 30 16 66
21 80 5 14 10 53 11 88 1 37 8 68 15 74 9 7 13 7 13 -1 0 -6 7 -11 15 -11 8 0
15 6 15 14 0 8 -7 16 -15 20 -8 3 -15 15 -15 26 0 16 4 20 19 15 16 -5 21 1
26 27 5 21 4 33 -4 36 -9 3 -7 10 5 23 16 17 16 20 0 44 -9 14 -15 34 -12 43
6 20 -1 33 -29 48 -17 10 -20 22 -21 83 0 39 -3 73 -6 76 -7 7 -80 -99 -170
-247 -124 -205 -324 -479 -511 -698 -87 -102 -399 -417 -481 -485 -33 -28 -67
-57 -76 -65 -9 -9 -34 -29 -55 -45 -22 -16 -63 -48 -91 -72 -53 -44 -439 -286
-577 -362 -61 -34 -81 -40 -92 -31 -25 21 -6 37 109 95 61 30 124 66 138 78
15 12 70 49 124 82 53 33 133 87 178 120 76 56 473 441 546 530 18 22 74 84
124 139 50 54 107 122 126 151 36 53 104 139 221 280 102 122 261 368 322 496
4 8 25 41 47 74 55 83 106 183 120 234 10 37 14 42 25 30 7 -8 24 -57 38 -109z
m-729 -66 c3 -9 5 -28 5 -42 -1 -17 -3 -21 -6 -9 -2 9 -9 17 -14 17 -5 0 -9
11 -9 25 0 28 15 34 24 9z m-7644 -69 c34 -40 -16 -97 -393 -449 -471 -440
-650 -595 -689 -596 -5 0 -8 26 -8 58 0 67 21 99 130 197 36 33 124 116 195
186 265 258 320 308 490 443 82 66 242 176 255 176 4 0 13 -7 20 -15z m7626
-100 c-7 -44 -15 -86 -20 -93 -4 -6 -11 -33 -16 -60 -13 -75 -41 -181 -67
-257 -14 -38 -28 -83 -32 -100 -22 -82 -133 -295 -216 -415 -18 -25 -34 -50
-36 -56 -15 -42 -243 -274 -268 -274 -12 0 -18 -7 -17 -17 0 -12 -7 -19 -21
-21 -13 -2 -23 -9 -23 -16 0 -6 -13 -17 -30 -23 -16 -6 -30 -7 -30 -2 0 5 3 9
8 9 4 0 18 17 32 38 34 51 116 158 159 208 50 58 165 246 234 384 32 63 63
119 68 124 17 18 21 -3 6 -36 -9 -18 -32 -72 -52 -120 -31 -73 -79 -148 -137
-218 -22 -25 -58 -102 -52 -111 10 -16 24 -9 34 16 5 14 13 25 17 25 5 0 15
15 22 33 8 17 36 59 61 92 48 61 200 346 238 445 12 30 26 75 32 100 6 25 15
54 19 65 15 35 63 249 66 292 2 23 9 48 16 56 8 8 15 14 15 13 1 0 -4 -37 -10
-81z m-9065 -118 c-8 -8 -11 -7 -11 4 0 9 3 19 7 23 4 4 9 2 11 -4 3 -7 -1
-17 -7 -23z m10 -204 c5 -81 12 -187 15 -235 8 -102 -10 -124 -20 -25 -8 78
-21 166 -36 237 -16 76 -15 114 6 149 10 17 20 29 22 26 2 -2 8 -70 13 -152z
m3753 103 c32 -8 97 -33 144 -56 71 -34 101 -56 177 -133 79 -80 95 -103 124
-172 46 -111 62 -190 68 -342 8 -184 -12 -282 -79 -401 -88 -154 -221 -311
-254 -298 -10 4 -21 0 -29 -10 -8 -12 -14 -14 -19 -6 -4 7 3 16 17 23 13 6 29
25 37 42 7 18 15 35 18 40 8 14 -14 7 -34 -12 -26 -23 -64 -44 -71 -38 -9 10
7 42 39 77 69 78 177 271 200 360 34 130 33 295 -2 388 -80 210 -279 342 -545
361 -182 13 -247 -2 -378 -91 -157 -107 -263 -272 -297 -463 -24 -135 36 -370
121 -472 21 -26 39 -51 39 -55 0 -15 -40 -28 -83 -28 -63 0 -104 31 -144 111
-59 116 -74 186 -80 369 -5 146 -3 176 15 248 22 84 71 194 121 266 58 83 171
185 247 221 101 49 118 54 219 76 107 22 331 20 429 -5z m-909 -59 c-11 -7
-44 -34 -74 -62 -29 -27 -99 -82 -154 -121 -56 -39 -149 -103 -207 -144 -137
-95 -133 -91 -272 -222 -132 -123 -253 -262 -243 -278 10 -16 128 -12 151 5
10 8 29 15 40 15 19 0 22 -7 27 -57 2 -32 13 -72 23 -89 9 -17 15 -38 11 -46
-3 -9 -42 -28 -89 -43 -117 -39 -173 -69 -234 -126 -119 -113 -132 -277 -45
-539 61 -183 127 -303 219 -402 l45 -48 -27 -38 c-14 -21 -26 -45 -26 -54 0
-24 -11 -48 -22 -48 -22 0 -228 247 -313 376 -159 241 -198 555 -104 840 25
76 149 322 197 389 100 141 305 359 422 449 30 24 88 63 128 87 40 24 85 52
100 61 69 43 316 105 376 94 17 -3 38 -1 46 4 8 5 22 10 30 9 11 0 9 -3 -5
-12z m1620 -217 c11 -5 43 -17 70 -26 356 -115 651 -405 768 -754 76 -225 72
-201 71 -390 l-1 -175 -37 -105 c-97 -272 -250 -483 -469 -648 -100 -74 -296
-212 -303 -212 -2 0 -4 26 -4 58 -1 31 -9 82 -20 112 -31 87 -29 93 48 138
135 80 367 334 443 484 55 110 71 244 44 372 -20 94 -50 124 -172 172 -52 21
-108 50 -125 66 -28 26 -30 32 -24 75 13 98 47 118 185 108 l94 -7 -6 38 c-22
132 -219 374 -385 472 -67 39 -163 75 -234 87 -42 7 -52 20 -68 90 -16 69 -11
74 52 63 29 -5 62 -13 73 -18z m-995 -169 c0 -5 -13 -36 -30 -69 -16 -34 -30
-66 -30 -72 0 -31 -123 -219 -242 -368 l-81 -103 -26 53 c-23 48 -26 64 -26
173 0 103 3 128 23 172 43 101 123 196 145 174 5 -5 21 -6 37 -1 24 7 27 5 24
-16 -3 -32 15 -42 34 -18 10 13 16 15 19 7 7 -20 26 -15 60 17 18 17 36 30 41
30 5 0 15 7 22 15 14 17 30 20 30 6z m8900 -36 c0 -9 -7 -18 -15 -21 -8 -4
-15 -10 -15 -16 0 -17 -107 -148 -121 -148 -13 0 3 44 29 80 30 42 104 119
115 120 4 0 7 -7 7 -15z m-12330 -81 c0 -8 -4 -14 -10 -14 -5 0 -10 9 -10 21
0 11 5 17 10 14 6 -3 10 -13 10 -21z m-2331 -91 c35 -155 97 -270 252 -463
119 -149 119 -149 364 -335 349 -265 619 -419 840 -479 55 -15 118 -33 140
-40 22 -8 82 -26 133 -42 99 -30 119 -46 108 -90 -5 -19 -13 -24 -36 -24 -40
0 -186 43 -295 87 -49 20 -135 51 -190 70 -192 65 -370 156 -595 306 -96 64
-210 142 -252 174 -95 72 -316 274 -317 290 -1 7 -12 20 -26 29 -14 9 -35 29
-46 45 -16 22 -17 32 -8 46 9 15 7 26 -11 56 -14 24 -29 37 -39 35 -14 -3 -16
-19 -13 -113 6 -255 94 -548 200 -672 15 -18 52 -64 82 -104 98 -127 107 -132
470 -278 291 -116 440 -161 765 -231 256 -54 312 -73 339 -112 20 -28 20 -44
2 -51 -39 -15 -476 51 -651 98 -183 49 -601 197 -685 242 -256 136 -463 331
-565 532 -89 177 -125 575 -76 851 45 252 80 308 110 173z m2334 -25 c3 -29
12 -73 21 -98 8 -24 13 -46 11 -48 -3 -3 -9 8 -15 24 -6 16 -17 43 -24 59 -34
75 -38 115 -12 115 8 0 15 -19 19 -52z m5697 42 c0 -5 -7 -10 -15 -10 -17 0
-20 -17 -4 -22 6 -2 13 -39 15 -83 2 -44 9 -81 14 -83 5 -2 7 -17 3 -33 -4
-23 -2 -29 12 -29 9 0 15 -5 13 -12 -6 -17 -27 -22 -32 -6 -2 7 -10 36 -18 63
-9 28 -21 70 -29 95 -7 25 -16 49 -21 55 -4 5 -8 21 -8 36 0 24 5 28 33 32 17
2 33 5 35 5 1 1 2 -2 2 -8z m244 -82 c10 -46 22 -101 28 -123 12 -46 42 -187
63 -290 7 -38 23 -108 34 -155 24 -99 25 -108 9 -92 -6 6 -22 49 -35 94 -26
89 -53 145 -69 140 -5 -2 -7 -9 -5 -15 2 -7 5 -47 7 -90 2 -43 5 -81 5 -85 1
-4 1 -15 0 -24 -1 -21 -21 -25 -21 -4 0 7 -6 19 -14 25 -8 7 -17 28 -21 49 -4
20 -10 42 -14 47 -29 40 -108 430 -110 549 -1 33 1 37 14 26 8 -6 17 -21 21
-32 7 -24 40 -58 55 -58 7 0 9 14 7 38 -5 39 5 82 20 82 5 0 17 -37 26 -82z
m4195 -193 c-16 -173 -56 -370 -101 -500 -54 -156 -145 -349 -192 -406 -11
-14 -56 -69 -98 -121 -69 -85 -112 -125 -256 -235 -77 -60 -207 -141 -278
-173 -151 -70 -173 -80 -179 -80 -4 0 -21 -6 -38 -14 -136 -62 -207 -87 -292
-106 -111 -24 -244 -58 -258 -67 -12 -7 -226 -41 -382 -59 -140 -17 -466 -23
-527 -11 -38 8 -49 26 -25 45 7 5 81 10 169 11 87 1 163 4 170 6 15 5 242 34
348 45 296 28 453 56 535 94 28 13 73 31 100 41 91 31 129 46 205 81 172 80
245 122 299 168 31 27 77 65 103 84 61 44 262 268 311 346 39 64 130 246 140
281 3 11 19 56 36 100 17 44 40 114 51 155 11 41 22 85 26 98 11 40 -16 24
-89 -51 -150 -153 -367 -329 -557 -452 -159 -103 -617 -328 -820 -403 -154
-56 -487 -162 -511 -162 -13 0 -31 -4 -39 -10 -9 -5 -19 -5 -26 1 -7 6 -19 2
-33 -10 -12 -11 -41 -23 -64 -26 -23 -4 -47 -11 -52 -16 -6 -4 -29 -12 -50
-18 -22 -5 -73 -22 -113 -37 -79 -29 -98 -25 -87 18 6 23 14 26 86 36 51 8 95
21 123 37 23 14 50 25 59 25 10 0 17 4 17 8 0 5 21 16 48 25 26 8 99 34 162
57 63 23 129 46 145 51 17 5 39 13 50 18 42 20 203 83 275 108 134 46 203 74
305 126 55 27 161 81 236 118 117 59 233 128 249 149 3 3 21 17 40 30 19 13
61 44 92 69 31 25 87 68 125 96 92 67 123 93 234 199 52 50 138 131 191 179
52 48 104 104 114 122 10 19 21 31 25 27 3 -4 2 -47 -2 -97z m-10218 -63 c29
-85 106 -203 207 -320 52 -59 217 -255 308 -365 28 -34 84 -93 123 -131 77
-73 91 -93 91 -125 0 -51 -33 -26 -311 225 -109 99 -299 313 -299 338 0 21
-134 176 -143 165 -2 -2 0 -75 3 -162 6 -141 10 -162 29 -185 11 -15 31 -45
42 -67 50 -92 150 -203 244 -270 33 -24 140 -86 236 -137 142 -76 175 -97 177
-116 3 -22 1 -23 -30 -17 -59 13 -223 72 -294 105 -161 77 -312 201 -432 357
-129 167 -124 152 -101 310 10 73 26 158 35 190 8 32 19 81 24 108 4 28 13 62
19 78 6 15 16 39 21 53 14 37 31 26 51 -34z m5820 21 c1 -10 3 -38 5 -63 l3
-45 -15 40 c-26 67 -28 85 -10 85 9 0 16 -8 17 -17z m1666 -423 c-7 -155 -56
-251 -215 -420 -110 -118 -169 -163 -308 -241 -159 -89 -519 -229 -588 -229
-28 0 -35 21 -13 37 14 12 223 118 392 201 234 114 402 242 510 387 38 51 84
144 97 193 6 26 24 77 39 115 15 37 26 67 24 67 -2 0 -32 -30 -66 -67 -124
-129 -299 -296 -371 -351 -40 -31 -80 -63 -88 -71 -25 -24 -170 -116 -255
-162 -44 -23 -113 -63 -153 -88 -197 -124 -191 -119 -200 -159 -5 -20 -14 -57
-21 -82 -7 -25 -16 -70 -21 -100 -12 -81 -46 -213 -73 -279 -35 -88 -112 -212
-170 -279 -29 -32 -73 -86 -99 -120 -26 -33 -82 -88 -125 -121 -43 -34 -87
-68 -98 -77 -21 -18 -220 -114 -338 -165 -122 -52 -324 -105 -467 -123 -30 -4
-77 -11 -105 -16 -86 -15 -145 -20 -143 -12 0 4 -2 15 -7 25 -12 28 3 36 111
62 54 14 128 34 164 44 36 11 99 30 140 42 135 38 243 80 355 139 225 117 240
127 379 268 186 188 278 332 308 477 5 27 16 74 24 104 7 30 12 57 9 59 -5 5
-44 -12 -280 -128 -202 -100 -326 -155 -595 -263 -361 -145 -578 -225 -583
-216 -1 2 -12 18 -25 36 -26 39 -29 73 -5 73 19 0 377 152 481 205 61 30 120
54 387 158 89 34 457 208 525 248 19 11 103 54 185 94 83 41 186 100 230 131
44 30 114 74 155 96 85 47 285 179 375 247 74 56 96 75 259 228 72 67 154 140
182 162 29 23 55 49 59 58 14 31 27 -84 22 -187z m-6731 135 c-9 -14 -23 -36
-32 -50 -19 -30 -34 -32 -34 -6 0 10 16 33 35 50 43 38 53 39 31 6z m7504 -2
c0 -20 -216 -203 -295 -249 -33 -19 -78 -46 -100 -60 -118 -72 -137 -75 -155
-28 -13 33 2 54 37 54 58 0 233 89 347 177 28 21 64 46 80 57 17 10 39 27 49
37 18 19 37 25 37 12z m-4647 -37 c84 -35 172 -175 203 -325 11 -52 23 -85 33
-89 8 -3 17 0 19 7 5 16 43 51 55 51 5 0 7 -7 3 -15 -9 -24 11 -65 32 -65 10
0 22 -4 28 -9 5 -5 30 -12 56 -16 53 -8 69 6 49 44 -16 30 6 37 29 9 32 -37
35 -66 12 -96 -17 -24 -26 -27 -68 -24 -27 1 -89 12 -139 23 -423 96 -460 102
-650 102 -244 1 -413 -21 -565 -74 -150 -53 -150 -53 -167 -4 -18 52 -9 101
27 137 28 28 28 28 162 28 103 0 139 -3 154 -15 36 -27 48 -17 96 78 63 122
142 204 219 228 118 36 352 51 412 25z m8087 -6 c0 -5 -5 -10 -11 -10 -5 0 -7
5 -4 10 3 6 8 10 11 10 2 0 4 -4 4 -10z m-40 -46 c0 -8 -5 -12 -10 -9 -6 4 -8
11 -5 16 9 14 15 11 15 -7z m-40 -39 c-7 -9 -15 -13 -18 -10 -3 2 1 11 8 20 7
9 15 13 18 10 3 -2 -1 -11 -8 -20z m-30 -29 c0 -2 -8 -10 -17 -17 -16 -13 -17
-12 -4 4 13 16 21 21 21 13z m-100 -100 c0 -3 -4 -8 -10 -11 -5 -3 -10 -1 -10
4 0 6 5 11 10 11 6 0 10 -2 10 -4z m-30 -33 c0 -20 -317 -311 -428 -393 -19
-14 -65 -61 -104 -105 -59 -66 -167 -159 -316 -272 -13 -10 -34 -27 -47 -38
-57 -49 -115 -90 -115 -81 0 19 22 43 88 97 42 35 122 107 177 160 55 53 125
117 155 140 30 24 134 111 230 194 96 83 199 170 228 193 30 23 68 57 85 77
31 33 47 43 47 28z m-11633 -76 c12 -33 34 -68 63 -97 92 -90 146 -172 104
-156 -9 3 -21 6 -27 6 -6 0 -32 23 -58 51 -26 28 -52 48 -58 45 -25 -16 -11
-92 35 -187 70 -144 97 -171 277 -283 91 -56 376 -148 527 -170 83 -12 98 -28
61 -65 -26 -26 -73 -27 -209 -6 -251 40 -525 162 -634 284 -51 57 -155 252
-166 313 -12 62 12 280 35 320 10 18 35 -9 50 -55z m8886 -96 c-3 -12 -11 -17
-23 -14 -10 3 -28 0 -40 -7 -12 -6 -24 -10 -26 -8 -5 5 67 46 83 47 6 1 9 -7
6 -18z m-1175 -18 c23 -43 24 -121 2 -230 -24 -117 -36 -142 -119 -248 -78
-99 -116 -132 -222 -196 -202 -121 -412 -192 -718 -244 -162 -27 -236 -32
-226 -14 11 16 52 29 161 49 56 10 129 26 162 34 33 9 73 16 89 16 17 0 33 8
41 20 7 11 33 29 60 41 117 51 163 75 281 146 225 137 268 178 295 288 32 128
21 166 -29 98 -63 -86 -216 -203 -365 -278 -80 -40 -284 -115 -423 -154 -176
-51 -226 -43 -198 32 8 21 20 27 68 37 59 11 241 64 278 80 11 5 81 35 155 66
74 32 147 66 162 76 14 10 29 18 32 18 3 0 41 25 83 55 43 30 101 71 128 90
28 18 66 49 85 67 57 53 194 168 202 168 4 0 11 -8 16 -17z m1207 -23 c3 -5 1
-10 -4 -10 -6 0 -11 5 -11 10 0 6 2 10 4 10 3 0 8 -4 11 -10z m-5276 -76 c150
-22 396 -79 441 -103 9 -5 31 -12 50 -16 126 -27 326 -189 378 -305 14 -30 30
-62 37 -70 32 -42 65 -227 65 -372 l0 -78 -27 -1 c-125 -2 -443 -20 -505 -28
-77 -10 -252 -61 -343 -100 -11 -5 -49 -21 -84 -36 -133 -57 -198 -102 -327
-227 l-62 -59 -56 59 c-30 32 -97 89 -148 126 -115 83 -395 245 -497 286 -175
72 -240 114 -259 168 -18 52 35 204 112 321 119 178 271 294 489 371 74 26
211 62 277 73 67 11 361 6 459 -9z m4941 -13 c0 -5 -10 -11 -22 -14 -22 -6
-22 -6 -4 8 23 17 26 18 26 6z m-96 -46 c-4 -9 -19 -15 -40 -15 -23 0 -38 -6
-46 -20 -7 -11 -22 -20 -34 -20 -26 0 -84 -28 -84 -41 0 -5 -11 -9 -25 -9 -14
0 -25 4 -25 9 0 11 97 58 179 87 80 28 82 28 75 9z m-2134 -35 c0 -5 -7 -10
-16 -10 -8 0 -12 5 -9 10 3 6 10 10 16 10 5 0 9 -4 9 -10z m-5291 -52 c33 -29
81 -70 108 -90 26 -21 95 -75 153 -121 58 -45 155 -116 215 -157 61 -41 112
-77 115 -80 10 -12 147 -97 211 -132 107 -58 284 -179 281 -191 -2 -7 -12 -21
-22 -31 -17 -17 -23 -18 -67 -6 -129 35 -466 237 -695 417 -106 83 -170 119
-188 108 -6 -4 -10 -21 -10 -40 0 -63 49 -362 67 -406 44 -111 136 -261 207
-338 40 -43 188 -161 202 -161 4 0 21 -11 38 -23 17 -13 83 -51 146 -85 63
-34 128 -72 144 -85 26 -21 28 -27 21 -65 -8 -47 -13 -49 -91 -28 -51 13 -76
26 -219 111 -177 105 -351 248 -387 320 -11 22 -43 68 -69 102 -54 67 -126
197 -158 283 -43 118 -95 546 -71 591 8 14 9 44 5 90 -4 38 -4 69 -1 69 3 0
33 -24 65 -52z m-3307 -57 c70 -68 263 -196 408 -270 114 -58 261 -108 470
-161 354 -89 458 -106 880 -145 344 -31 336 -30 344 -50 11 -29 -6 -43 -72
-59 -58 -15 -92 -15 -257 -7 -196 10 -498 51 -705 95 -63 14 -142 30 -175 37
-259 51 -464 122 -670 230 -132 69 -135 70 -135 45 0 -43 66 -172 137 -268
118 -159 278 -280 435 -329 291 -90 463 -114 793 -113 168 1 286 6 360 17 162
23 305 31 338 18 26 -10 38 -43 19 -55 -14 -8 -302 -66 -432 -87 -517 -80
-1138 22 -1457 239 -84 58 -105 78 -168 167 -105 147 -166 294 -214 512 -23
103 -37 224 -28 247 11 27 62 2 129 -63z m10398 4 c-7 -8 -27 -15 -46 -15 -18
0 -35 -4 -38 -9 -3 -5 -17 -12 -32 -15 -14 -4 -38 -18 -52 -31 -15 -14 -39
-25 -54 -25 -28 0 -45 14 -29 24 5 4 12 2 16 -4 7 -12 25 -4 25 12 0 6 -12 8
-30 5 -21 -5 -30 -3 -30 7 0 16 104 39 138 30 15 -4 30 0 42 11 12 11 29 16
45 13 14 -3 30 1 36 9 7 7 14 11 17 8 3 -2 -1 -11 -8 -20z m-7595 -85 c57 -25
254 -100 264 -100 6 0 11 -4 11 -10 0 -13 -49 -3 -150 30 -104 35 -165 64
-199 96 l-26 25 40 -16 c22 -9 49 -20 60 -25z m-563 -103 c36 -52 38 -60 23
-70 -14 -11 -14 -16 0 -56 8 -24 19 -49 24 -55 4 -6 11 -24 15 -40 10 -42 99
-150 160 -195 69 -51 151 -89 222 -102 101 -19 336 -16 441 6 51 10 95 16 99
13 13 -13 -8 -47 -39 -61 -95 -45 -385 -69 -527 -44 -103 18 -229 66 -291 112
-61 44 -167 167 -191 222 -16 36 -19 63 -17 141 2 53 -1 129 -6 167 l-8 70 28
-25 c15 -14 45 -51 67 -83z m10225 -3 c2 -5 -22 -36 -53 -67 l-57 -57 22 -24
c32 -34 22 -84 -46 -215 -72 -138 -134 -232 -203 -305 -68 -73 -217 -193 -290
-234 -90 -51 -270 -123 -340 -137 -36 -6 -92 -19 -125 -28 -33 -8 -107 -19
-165 -23 -58 -4 -116 -8 -130 -10 -148 -18 -199 -25 -219 -29 -40 -10 -379 -7
-521 5 -162 12 -271 31 -405 70 -127 36 -148 44 -165 65 -32 39 42 46 158 14
273 -74 489 -95 870 -84 343 9 519 37 752 118 131 45 161 61 300 160 165 117
340 337 340 430 0 18 -5 27 -16 27 -25 0 -109 -28 -255 -85 -140 -55 -268 -88
-474 -125 -66 -12 -156 -28 -200 -36 -300 -56 -319 -58 -740 -58 -396 -1 -559
7 -553 26 2 6 97 9 248 8 252 -1 406 11 660 51 69 11 161 24 205 30 135 17
274 48 410 89 372 113 456 141 524 170 67 29 191 104 374 227 61 41 87 49 94
27z m-10065 -137 c31 -20 82 -48 114 -62 118 -52 393 -127 522 -141 34 -4 65
-11 68 -15 21 -35 -455 36 -564 84 -42 18 -124 78 -156 114 -16 18 -33 33 -38
33 -8 0 -48 37 -48 44 0 6 35 -13 102 -57z m7504 -55 c-6 -45 -31 -122 -61
-189 -8 -17 -15 -34 -15 -37 0 -3 -21 -50 -46 -104 -60 -125 -197 -332 -265
-400 -61 -61 -167 -117 -248 -132 -168 -31 -398 8 -721 122 -47 17 -100 35
-117 41 -18 6 -33 13 -33 16 0 11 61 41 83 41 12 0 74 -18 137 -40 178 -63
271 -80 466 -87 231 -8 247 -3 372 124 51 52 90 98 87 103 -3 4 -58 6 -123 3
-200 -9 -524 27 -829 93 -13 2 -23 11 -23 20 0 22 93 15 275 -20 120 -23 166
-27 325 -27 228 -1 324 15 384 63 95 75 153 140 194 216 56 107 56 120 -5 83
-76 -47 -227 -111 -285 -121 -109 -20 -338 -46 -338 -38 0 4 12 10 28 14 229
51 507 155 622 233 25 17 50 31 55 31 6 0 21 9 35 20 42 33 53 27 46 -28z
m-7576 -352 c145 -108 334 -148 650 -137 96 4 203 12 238 18 46 8 67 8 75 0
15 -15 8 -19 -58 -36 -105 -28 -257 -45 -503 -57 l-242 -12 6 -50 c7 -61 18
-100 36 -122 56 -70 122 -111 191 -120 47 -7 180 22 251 54 23 10 70 32 106
48 36 16 76 36 90 46 191 128 231 143 216 84 -8 -34 -33 -56 -156 -139 -192
-130 -385 -204 -507 -195 -84 6 -147 40 -229 124 -108 110 -200 309 -219 473
-8 70 -9 70 55 21z m2290 -80 c58 -29 70 -43 51 -54 -35 -22 -100 -237 -137
-454 -23 -140 -25 -176 -21 -327 8 -282 61 -544 147 -720 53 -108 180 -306
239 -370 108 -119 268 -245 309 -245 5 0 12 10 16 23 17 61 62 802 77 1264 14
424 13 436 -72 525 l-50 53 25 -50 c70 -145 29 -387 -84 -489 -63 -57 -101
-70 -205 -71 -80 0 -95 3 -136 27 -50 30 -86 90 -110 188 -21 84 -19 380 4
502 26 134 26 134 111 103 38 -14 74 -29 80 -33 6 -5 31 -14 56 -22 45 -13
246 -110 308 -147 54 -33 170 -151 193 -195 23 -45 23 -49 -1 -433 -26 -413
-42 -705 -50 -945 -11 -324 -16 -352 -75 -410 -42 -42 -45 -42 -98 -38 -145
12 -399 240 -553 497 -70 117 -156 284 -172 337 -34 112 -85 354 -98 469 -35
290 11 679 112 954 14 36 27 72 29 79 7 20 42 14 105 -18z m2222 -110 c15 -7
30 -21 33 -30 3 -9 6 -133 6 -276 1 -263 -8 -373 -47 -554 -31 -146 -99 -368
-142 -465 -106 -242 -433 -582 -740 -772 -167 -103 -201 -116 -307 -117 -99
-1 -139 15 -151 62 -7 25 11 668 26 962 5 102 14 277 20 390 15 326 35 400
136 504 95 97 201 161 386 233 167 65 298 82 578 79 119 -2 184 -7 202 -16z
m-4592 -173 c0 -8 -43 -30 -97 -52 -54 -21 -102 -42 -108 -46 -15 -10 -169
-55 -265 -77 -326 -75 -880 -123 -1180 -102 -80 5 -151 10 -157 10 -68 1 175
-254 302 -317 22 -11 72 -31 110 -44 64 -22 86 -24 245 -24 157 1 190 4 325
32 338 72 622 182 843 327 l102 67 35 -27 c52 -40 70 -84 33 -84 -6 0 -36 -17
-66 -37 -156 -103 -421 -241 -567 -296 -151 -56 -340 -101 -495 -117 -128 -13
-397 -13 -461 1 -174 37 -392 197 -504 369 -84 130 -154 315 -127 342 8 8 37
2 109 -20 171 -54 197 -57 498 -57 454 1 768 35 1210 134 146 33 215 38 215
18z m1390 -180 c0 -12 -198 -203 -269 -260 -100 -80 -231 -135 -343 -144 -60
-5 -71 -3 -115 22 -96 56 -189 137 -171 149 15 10 62 26 75 26 9 0 39 -17 67
-39 95 -72 116 -75 222 -35 87 32 189 88 329 179 181 118 205 130 205 102z
m6110 -37 c12 -8 11 -10 -7 -10 -12 0 -25 5 -28 10 -8 13 15 13 35 0z m-1569
-57 c125 -168 341 -320 495 -349 47 -9 43 -24 -7 -24 -45 0 -165 37 -238 74
-52 27 -185 123 -243 177 -47 43 -118 130 -118 145 0 11 35 32 56 33 7 1 31
-25 55 -56z m1664 21 c11 -8 27 -14 37 -14 23 0 68 -21 68 -32 0 -4 -8 -4 -17
2 -10 5 -37 14 -60 20 -24 6 -43 16 -43 21 0 6 -6 9 -14 6 -8 -3 -22 0 -32 8
-17 12 -16 13 11 8 17 -3 39 -12 50 -19z m-1153 -33 c118 -53 243 -112 280
-131 20 -11 43 -20 49 -20 30 0 99 -43 99 -61 0 -22 -22 -25 -39 -5 -7 8 -44
22 -84 31 -96 23 -183 66 -281 138 -122 90 -124 93 -24 48z m-5635 3 c-3 -3
-12 -4 -19 -1 -8 3 -5 6 6 6 11 1 17 -2 13 -5z m-52 -25 c-5 -14 -1 -25 12
-34 19 -14 13 -20 -27 -27 -23 -3 -90 12 -90 21 0 12 27 33 59 48 41 18 53 16
46 -8z m6365 12 c0 -13 -103 -107 -138 -125 -41 -21 -64 -20 -112 4 -21 11
-64 29 -95 41 -30 11 -55 25 -55 31 0 10 32 8 133 -8 51 -8 146 12 194 42 39
24 73 31 73 15z m615 -19 c-3 -3 -11 0 -18 7 -9 10 -8 11 6 5 10 -3 15 -9 12
-12z m-6129 -58 c-15 -58 -222 -305 -316 -376 -44 -33 -135 -58 -211 -58 -78
0 -229 67 -229 102 0 4 20 18 44 30 43 20 45 21 81 4 20 -10 39 -24 42 -32 3
-8 18 -21 33 -29 33 -17 63 -9 170 45 64 32 122 85 282 258 79 84 116 105 104
56z m6367 0 c31 -3 60 -10 63 -15 3 -5 22 -9 43 -9 36 0 110 -10 371 -49 99
-15 188 -19 433 -20 170 -1 348 3 395 9 48 6 107 12 132 15 l45 4 -25 -17
c-13 -9 -34 -26 -45 -37 -47 -47 -111 -95 -127 -95 -10 0 -18 -6 -18 -12 0 -7
-5 -5 -11 5 -17 29 -57 39 -174 42 -195 6 -338 16 -435 31 -52 8 -154 21 -226
29 -72 8 -153 19 -180 25 -67 16 -175 49 -196 60 -9 5 -39 12 -67 16 -28 4
-56 13 -63 22 -11 13 -10 14 7 9 11 -3 46 -9 78 -13z m-2164 -31 c20 -15 65
-55 101 -88 68 -64 153 -125 236 -171 74 -40 164 -98 164 -106 0 -7 -29 -28
-151 -112 -101 -69 -210 -91 -340 -66 -64 12 -117 59 -184 160 -84 130 -155
285 -155 341 0 22 28 38 39 22 3 -6 16 -15 28 -22 13 -6 41 -45 63 -85 23 -41
66 -99 97 -130 56 -56 60 -70 19 -78 -38 -6 -26 -27 36 -58 37 -19 83 -34 113
-36 82 -6 212 -4 242 5 49 15 103 45 100 55 -2 6 -39 31 -83 56 -124 71 -217
146 -292 234 -97 115 -105 133 -33 79z m-5485 -9 c23 -22 20 -33 -11 -46 -16
-7 -84 -50 -153 -97 -355 -244 -558 -341 -1114 -531 -110 -38 -206 -75 -214
-84 -13 -13 -8 -17 37 -41 113 -57 227 -86 361 -92 221 -10 419 42 705 184
198 99 261 146 508 380 71 67 108 79 116 39 4 -26 -219 -243 -386 -375 -141
-111 -319 -227 -415 -270 -266 -121 -614 -132 -843 -27 -86 40 -245 136 -304
184 l-44 36 23 15 c13 8 86 44 164 79 125 56 196 81 356 127 232 66 435 139
605 217 61 27 142 65 182 83 39 19 99 52 133 75 64 43 260 158 272 159 4 1 14
-6 22 -15z m1453 -11 c20 -52 -207 -358 -317 -428 -87 -55 -217 -69 -287 -31
l-28 15 53 1 c29 0 68 7 88 15 71 30 179 112 243 185 116 134 165 192 190 226
26 37 48 43 58 17z m3615 -74 c35 -116 120 -303 168 -369 86 -119 87 -126 13
-163 -98 -50 -299 -91 -328 -67 -8 7 -15 19 -15 26 0 8 -10 25 -22 39 -25 28
-64 126 -109 270 -18 55 -40 125 -49 155 -33 104 -33 109 -5 120 54 20 59 16
82 -77 21 -84 36 -136 86 -304 34 -116 36 -117 137 -108 149 13 180 19 180 40
0 10 -16 47 -35 81 -49 86 -126 249 -153 323 -20 56 -8 111 22 102 5 -2 18
-32 28 -68z m-3442 6 c0 -19 -22 -67 -36 -80 -14 -12 -24 -65 -12 -65 4 0 6
-19 2 -42 -17 -126 -95 -258 -191 -326 -38 -27 -118 -30 -163 -7 -27 14 -42
45 -22 45 8 0 24 15 140 140 56 60 109 131 213 288 40 59 69 79 69 47z m5243
-21 c38 -20 109 -73 120 -91 4 -7 14 -13 22 -13 8 0 20 -8 27 -17 7 -10 27
-25 43 -33 17 -8 37 -21 45 -29 13 -13 13 -14 -5 -7 -11 5 -39 14 -63 22 -43
13 -184 85 -212 107 -71 58 -55 101 23 61z m2017 -154 c-66 -92 -249 -183
-415 -205 -170 -22 -236 -27 -330 -23 -71 2 -122 9 -145 20 l-35 16 30 12 c17
7 100 16 185 20 263 14 395 46 576 140 150 78 179 83 134 20z m-1926 -107 c26
-17 42 -34 37 -38 -6 -3 -23 3 -38 13 -16 11 -54 36 -85 56 -32 20 -58 42 -58
47 0 10 62 -23 144 -78z m-1484 28 c7 -14 6 -19 -3 -17 -21 3 -38 17 -32 27
10 15 23 11 35 -10z m-5124 -59 c-8 -24 -222 -244 -326 -335 -120 -104 -275
-228 -354 -282 -148 -101 -238 -171 -325 -251 l-45 -42 69 -22 c55 -17 96 -22
190 -22 187 -1 283 31 463 155 94 66 203 154 253 207 9 9 48 60 85 112 38 52
107 137 154 187 47 51 89 99 93 107 9 15 53 19 61 5 17 -26 -245 -394 -386
-542 -151 -159 -316 -276 -480 -339 -83 -32 -253 -52 -352 -41 -183 21 -508
131 -523 178 -3 7 11 14 34 18 77 13 180 48 243 82 96 53 331 207 447 293 55
41 132 97 170 125 73 53 206 169 344 301 47 45 105 96 129 113 45 33 67 30 56
-7z m1344 -94 c0 -62 18 -169 39 -238 19 -62 14 -79 -59 -170 -39 -49 -79
-108 -90 -133 -33 -74 -42 -172 -26 -289 16 -123 47 -208 92 -257 l32 -36 121
-4 c134 -3 131 -1 111 -72 -14 -49 -71 -113 -125 -139 -25 -12 -45 -26 -45
-31 0 -11 70 -147 98 -190 9 -15 26 -41 37 -58 10 -17 64 -75 120 -129 145
-141 452 -342 523 -342 10 0 27 -7 38 -15 18 -14 17 -14 -13 -15 -65 0 -264
41 -339 70 -255 101 -409 228 -590 486 -129 184 -150 222 -197 364 -44 132
-70 294 -69 435 0 175 43 314 144 467 98 147 149 246 163 308 9 42 13 50 26
50 5 0 9 -28 9 -62z m5386 35 c-7 -7 -26 7 -26 19 0 6 6 6 15 -2 9 -7 13 -15
11 -17z m-595 -88 c52 -47 112 -98 134 -112 22 -15 81 -57 130 -94 342 -253
461 -301 785 -315 221 -9 354 9 502 69 124 51 118 66 -44 109 -197 53 -435
139 -532 192 -47 26 -86 52 -86 57 0 23 162 -21 344 -95 76 -32 166 -64 200
-72 193 -49 317 -74 361 -74 27 0 57 -5 65 -10 16 -11 17 -11 -72 -77 -57 -42
-207 -115 -288 -141 -127 -41 -272 -62 -425 -62 -147 0 -199 8 -314 50 -84 31
-200 81 -231 101 -8 5 -25 13 -37 19 -114 49 -589 459 -606 523 -10 34 20 16
114 -68z m-211 8 c36 -34 140 -176 133 -183 -8 -8 -183 178 -183 194 0 23 16
19 50 -11z m-5476 -69 c22 -9 20 -32 -8 -73 -48 -74 -136 -220 -196 -326 -130
-230 -222 -368 -340 -512 -128 -156 -128 -157 -50 -161 79 -5 176 14 245 48
99 48 241 195 349 364 64 100 191 332 245 447 23 48 47 92 56 99 28 23 29 -18
2 -78 -14 -32 -51 -122 -83 -202 -51 -133 -84 -205 -158 -346 -43 -81 -153
-222 -251 -320 -73 -74 -101 -95 -150 -113 -85 -32 -184 -44 -302 -37 -111 7
-175 25 -210 58 -39 36 -37 40 71 133 32 28 92 93 134 145 42 52 79 97 82 100
4 3 43 50 87 106 71 90 200 280 392 577 35 53 65 97 66 97 2 0 10 -3 19 -6z
m3966 -33 c0 -9 5 -22 11 -28 26 -26 1 -41 -74 -48 -63 -6 -80 -4 -106 11 -34
20 -48 44 -26 44 7 0 16 -4 19 -9 7 -10 102 -22 121 -15 8 3 19 21 25 40 12
34 30 38 30 5z m-369 -42 c155 -232 224 -489 199 -734 -18 -182 -82 -329 -232
-540 -207 -289 -494 -514 -773 -605 -165 -53 -326 -79 -493 -80 -72 0 -64 20
14 38 67 16 117 30 221 62 73 22 254 110 328 159 184 123 216 151 322 275 128
150 127 146 71 200 -61 58 -76 101 -59 164 21 82 37 91 159 94 l106 3 26 38
c75 111 105 208 105 342 0 115 -15 178 -81 333 -46 108 -54 152 -29 172 12 10
22 6 57 -21 24 -19 53 -45 65 -59 36 -41 28 -4 -22 92 -67 131 -57 177 16 67z
m1485 2 c27 -30 32 -40 103 -173 140 -265 314 -452 507 -544 108 -51 184 -68
299 -67 134 1 374 26 383 39 5 7 37 5 102 -5 64 -10 87 -17 70 -20 -14 -4 -50
-19 -80 -36 -124 -66 -190 -80 -442 -90 -100 -3 -157 -1 -207 10 -184 38 -360
172 -463 350 -23 41 -87 137 -140 213 -110 154 -193 307 -183 335 10 24 21 21
51 -12z m-132 -104 c14 -18 47 -79 75 -137 84 -175 210 -410 268 -498 56 -85
146 -183 240 -262 29 -24 55 -50 58 -58 9 -23 -13 -41 -61 -48 -24 -3 -46 -10
-49 -14 -7 -12 21 -32 42 -30 51 6 58 -9 14 -28 -38 -17 -303 -15 -369 3 -76
20 -169 71 -188 105 -10 16 -24 30 -30 30 -7 0 -14 4 -16 9 -1 5 -26 34 -53
63 -59 62 -70 79 -146 218 -39 70 -204 537 -215 608 -5 34 -4 42 9 42 16 0 47
-71 62 -140 4 -19 27 -80 50 -135 37 -87 68 -167 133 -345 9 -25 36 -73 61
-107 26 -35 62 -88 81 -118 38 -61 59 -75 165 -110 75 -25 271 -51 304 -40 12
3 28 20 36 36 18 34 10 55 -45 124 -44 55 -200 296 -200 309 0 3 -17 31 -38
63 -44 66 -122 211 -142 263 -7 19 -33 77 -56 128 -24 51 -44 95 -44 97 0 17
33 0 54 -28z m-4481 11 c25 -12 32 -36 9 -31 -19 4 -59 -59 -77 -122 -31 -111
-182 -479 -270 -657 -48 -98 -85 -186 -83 -195 4 -23 76 -30 133 -13 32 10
122 65 145 90 10 10 69 50 75 50 16 0 -45 -91 -92 -138 -116 -113 -201 -147
-377 -153 -63 -2 -91 0 -94 9 -2 6 23 47 56 89 33 43 78 108 101 145 40 66
242 476 283 573 12 28 25 54 30 60 4 5 8 16 8 25 1 8 9 33 20 55 10 22 31 82
46 133 30 98 36 103 87 80z m3932 -70 c16 -23 43 -107 90 -283 33 -119 60
-192 125 -330 10 -22 31 -69 46 -105 15 -36 32 -71 37 -78 35 -46 91 -163 100
-208 8 -44 -9 -62 -68 -73 -88 -17 -250 -23 -291 -12 -98 27 -212 193 -274
401 -88 297 -104 359 -135 525 -31 167 -31 165 -2 165 21 0 26 -9 45 -77 28
-106 69 -313 77 -393 10 -100 31 -154 114 -295 109 -186 165 -236 284 -252 53
-7 80 2 100 36 35 60 28 87 -89 346 -22 49 -107 289 -124 350 -5 17 -22 75
-38 130 -41 140 -47 175 -28 175 8 0 22 -10 31 -22z m1710 -327 c142 -99 269
-201 260 -209 -2 -3 -20 3 -39 12 -19 9 -40 16 -48 16 -8 0 -18 4 -23 9 -6 5
-26 14 -46 20 -49 16 -199 162 -199 194 0 12 49 -9 95 -42z m-7262 -529 c10
-9 29 -38 43 -65 43 -86 183 -279 504 -694 240 -311 325 -412 535 -633 55 -58
150 -161 210 -230 205 -233 275 -304 490 -500 87 -80 238 -222 335 -316 166
-161 323 -306 400 -368 19 -15 91 -83 160 -150 141 -136 219 -208 270 -250 84
-69 296 -266 479 -446 48 -47 117 -125 155 -173 37 -49 73 -87 79 -85 13 5 37
49 135 258 38 80 108 212 156 294 48 82 99 172 113 200 64 129 471 726 610
895 34 42 88 110 120 151 31 41 89 111 128 155 39 44 116 134 171 200 127 153
581 608 744 745 68 57 132 112 142 122 9 9 64 54 120 98 57 45 112 89 123 98
11 9 123 94 250 189 198 149 251 184 390 254 88 44 169 89 180 99 37 33 62 40
202 55 76 8 154 19 173 25 55 14 162 39 198 44 l32 6 -14 -28 c-22 -41 -69
-82 -201 -171 -305 -208 -793 -571 -941 -700 -23 -20 -70 -58 -105 -86 -352
-274 -863 -772 -1190 -1156 -282 -333 -410 -492 -528 -662 -35 -51 -99 -139
-141 -197 -67 -92 -150 -217 -362 -540 -52 -79 -203 -350 -240 -430 -67 -144
-89 -192 -111 -245 -43 -100 -51 -115 -66 -115 -7 0 -47 30 -88 68 -41 37
-110 99 -153 137 -43 39 -141 129 -217 200 -141 132 -157 147 -304 270 -85 72
-158 137 -334 300 -55 51 -140 127 -190 170 -49 43 -142 129 -205 191 -63 62
-158 148 -210 192 -96 80 -385 356 -560 533 -470 475 -607 622 -825 885 -49
59 -117 140 -151 179 -33 38 -145 183 -248 320 -103 138 -206 275 -229 305
-95 123 -377 585 -377 618 0 21 318 6 343 -16z"/>
<path d="M21396 32891 c-3 -5 -8 -26 -11 -47 -3 -22 -8 -50 -11 -64 -13 -58
-5 -329 11 -382 63 -208 196 -453 292 -538 77 -68 221 -168 269 -186 24 -9 44
-20 44 -24 0 -4 15 -11 34 -14 19 -4 39 -13 46 -21 7 -8 22 -15 33 -15 18 0
72 -26 247 -116 92 -48 165 -101 216 -158 59 -65 124 -151 124 -163 0 -6 18
-35 40 -67 22 -31 40 -59 40 -61 0 -2 12 -21 26 -42 14 -21 41 -70 59 -108 27
-58 65 -112 65 -93 0 13 -141 281 -175 333 -74 112 -204 261 -273 311 -79 57
-213 126 -292 151 -133 41 -374 184 -477 282 -28 27 -152 202 -185 261 -44 80
-102 262 -113 354 -4 33 -10 69 -15 80 -4 12 -1 66 6 121 7 55 11 107 8 117
-3 9 0 19 6 23 13 8 13 75 1 75 -6 0 -12 -4 -15 -9z"/>
<path d="M26590 29341 c0 -12 5 -21 10 -21 6 0 10 6 10 14 0 8 -4 18 -10 21
-5 3 -10 -3 -10 -14z"/>
<path d="M26740 29025 c0 -10 30 -65 36 -65 9 0 -8 43 -22 58 -8 7 -14 11 -14
7z"/>
<path d="M26780 28926 c0 -2 7 -9 15 -16 13 -11 14 -10 9 4 -5 14 -24 23 -24
12z"/>
<path d="M21230 29425 c-7 -8 -19 -15 -26 -15 -8 0 -14 -5 -14 -10 0 -12 55
14 65 30 10 16 -11 12 -25 -5z"/>
<path d="M25527 26425 c-17 -37 -23 -77 -9 -59 11 13 35 85 30 90 -3 2 -12
-12 -21 -31z"/>
<path d="M25404 26353 c-3 -21 -13 -49 -21 -62 -23 -36 -34 -81 -20 -81 6 0 1
-7 -11 -16 -12 -8 -22 -20 -22 -26 0 -5 -6 -24 -14 -41 -7 -18 -23 -57 -35
-87 -37 -94 -62 -149 -164 -361 -31 -63 -61 -126 -66 -140 -6 -13 -21 -40 -33
-61 -13 -20 -60 -98 -106 -175 -46 -76 -111 -179 -145 -229 -76 -111 -82 -120
-107 -166 -11 -21 -40 -61 -63 -90 -24 -30 -52 -67 -62 -83 -18 -29 -123 -165
-135 -175 -3 -3 -33 -39 -66 -80 -139 -172 -133 -187 13 -32 93 99 183 211
258 322 16 25 47 68 67 96 21 28 38 54 38 59 0 7 88 145 100 155 6 6 62 90 70
105 14 29 99 166 127 207 18 26 39 62 47 81 7 19 19 38 25 41 6 4 11 17 11 28
0 11 8 28 18 37 20 18 53 84 103 206 18 44 46 112 62 150 49 118 135 360 151
428 4 15 2 27 -3 27 -6 0 -13 -17 -17 -37z"/>
<path d="M25471 26266 c-17 -41 -31 -77 -31 -80 0 -3 -11 -29 -24 -58 -13 -29
-53 -125 -90 -213 -69 -165 -109 -248 -225 -470 -80 -153 -91 -173 -112 -195
-8 -9 -32 -47 -54 -86 -21 -38 -41 -71 -45 -74 -3 -3 -12 -20 -19 -37 -8 -18
-17 -33 -22 -33 -5 0 -9 -6 -9 -14 0 -7 -6 -19 -14 -25 -20 -17 -28 -51 -10
-44 8 3 14 10 14 16 0 6 29 53 64 106 35 53 69 107 76 121 7 14 30 47 51 74
22 27 39 54 39 61 0 7 8 23 18 36 38 48 145 251 182 344 13 33 30 69 37 80 7
11 13 26 13 33 0 8 7 28 15 45 8 18 24 56 35 86 12 30 33 80 46 110 39 86 71
168 94 244 21 67 3 51 -29 -27z"/>
<path d="M24724 24834 c-33 -47 -95 -134 -140 -192 -44 -59 -93 -129 -109
-157 -16 -27 -36 -55 -44 -62 -9 -6 -13 -14 -9 -18 4 -4 22 10 40 30 68 78
221 281 234 312 8 18 20 36 27 40 16 10 79 133 68 133 -5 0 -35 -39 -67 -86z"/>
<path d="M24390 24369 c0 -5 5 -7 10 -4 6 3 10 8 10 11 0 2 -4 4 -10 4 -5 0
-10 -5 -10 -11z"/>
<path d="M21945 22673 c-23 -5 -116 -47 -182 -82 -10 -5 -27 -12 -37 -16 -10
-3 -17 -8 -14 -10 6 -7 60 11 133 45 33 15 70 30 82 34 11 4 27 13 33 21 7 8
11 14 9 14 -2 -1 -13 -3 -24 -6z"/>
<path d="M21958 22583 c6 -2 18 -2 25 0 6 3 1 5 -13 5 -14 0 -19 -2 -12 -5z"/>
<path d="M21641 22539 c-13 -5 -21 -12 -18 -15 3 -3 18 1 34 10 31 17 21 20
-16 5z"/>
<path d="M21545 22494 c-23 -10 -25 -13 -10 -13 21 -1 53 15 45 22 -3 2 -18
-2 -35 -9z"/>
<path d="M19968 21983 c7 -3 16 -2 19 1 4 3 -2 6 -13 5 -11 0 -14 -3 -6 -6z"/>
<path d="M19830 21960 c-52 -8 -37 -12 35 -10 28 1 54 6 60 11 10 10 -25 10
-95 -1z"/>
<path d="M19728 21933 c7 -3 16 -2 19 1 4 3 -2 6 -13 5 -11 0 -14 -3 -6 -6z"/>
<path d="M19591 21919 c-24 -5 -47 -11 -50 -15 -9 -10 143 7 154 17 11 11 -43
10 -104 -2z"/>
<path d="M19425 21889 c-38 -4 -97 -15 -130 -23 -33 -9 -73 -16 -90 -16 -16 0
-59 -7 -95 -15 -36 -8 -126 -26 -200 -41 -237 -46 -366 -76 -378 -89 -3 -2 3
-7 12 -11 9 -4 45 3 79 14 34 12 87 26 117 31 30 5 75 14 100 20 204 46 530
109 609 117 34 4 64 11 67 15 3 5 -1 8 -8 8 -7 -1 -44 -5 -83 -10z"/>
<path d="M15630 26270 c-9 -6 -10 -10 -3 -10 6 0 15 5 18 10 8 12 4 12 -15 0z"/>
<path d="M15568 26216 c-47 -47 -108 -127 -108 -140 0 -6 14 5 31 24 17 19 48
53 68 75 52 57 65 75 53 75 -6 0 -25 -15 -44 -34z"/>
<path d="M25700 19890 c-12 -8 -11 -10 8 -10 12 0 22 5 22 10 0 13 -11 13 -30
0z"/>
<path d="M25625 19840 c-3 -5 1 -10 9 -10 8 0 18 5 21 10 3 6 -1 10 -9 10 -8
0 -18 -4 -21 -10z"/>
<path d="M25585 19809 c-11 -17 -2 -18 19 -3 17 12 17 14 4 14 -9 0 -20 -5
-23 -11z"/>
<path d="M25808 19813 c7 -3 16 -2 19 1 4 3 -2 6 -13 5 -11 0 -14 -3 -6 -6z"/>
<path d="M25386 19669 c-49 -33 -105 -72 -125 -88 -20 -15 -49 -36 -66 -45
-39 -21 -69 -40 -75 -46 -3 -3 -38 -25 -78 -48 -40 -24 -108 -67 -151 -95 -44
-29 -109 -70 -145 -92 -36 -22 -66 -43 -66 -47 0 -10 27 1 92 39 31 18 59 33
63 33 3 0 21 11 39 25 18 14 36 25 40 25 3 0 29 16 56 35 27 19 53 35 57 35
16 0 284 177 303 201 3 4 31 23 63 43 31 20 57 41 57 46 0 6 6 10 14 10 7 0
19 7 26 15 27 32 -16 13 -104 -46z"/>
<path d="M25160 19209 c0 -5 5 -7 10 -4 6 3 10 8 10 11 0 2 -4 4 -10 4 -5 0
-10 -5 -10 -11z"/>
<path d="M24625 19170 c-3 -6 1 -7 9 -4 18 7 21 14 7 14 -6 0 -13 -4 -16 -10z"/>
<path d="M25130 19132 c0 -6 -8 -13 -17 -15 -16 -4 -16 -5 -1 -6 18 -1 34 16
24 26 -3 4 -6 1 -6 -5z"/>
<path d="M25048 19073 c7 -3 16 -2 19 1 4 3 -2 6 -13 5 -11 0 -14 -3 -6 -6z"/>
<path d="M17080 19171 c0 -25 6 -27 13 -6 4 8 2 17 -3 20 -6 4 -10 -3 -10 -14z"/>
<path d="M23777 18810 c3 -11 9 -20 14 -20 5 0 9 9 9 20 0 11 -6 20 -14 20 -9
0 -12 -7 -9 -20z"/>
<path d="M23691 18472 c-5 -9 -12 -35 -16 -57 -4 -22 -11 -44 -15 -50 -4 -5
-10 -25 -13 -42 -8 -40 10 -45 19 -5 4 15 15 43 24 62 10 20 18 52 17 73 -1
42 -3 44 -16 19z"/>
<path d="M23632 18256 c-7 -16 -8 -26 -1 -26 12 0 22 25 17 41 -2 6 -9 0 -16
-15z"/>
<path d="M23551 18052 c-14 -26 -7 -42 10 -25 6 6 9 19 7 29 -3 17 -5 17 -17
-4z"/>
<path d="M23505 17950 c-3 -6 -3 -19 0 -31 5 -15 2 -22 -14 -26 -12 -3 -21
-11 -21 -18 0 -11 -41 -101 -88 -192 -9 -18 -14 -35 -10 -38 10 -11 34 6 46
33 6 15 16 34 21 42 22 33 80 170 86 204 7 34 -5 50 -20 26z"/>
<path d="M23345 17616 c-16 -12 -18 -17 -7 -27 15 -16 36 1 30 25 -3 15 -5 15
-23 2z"/>
<path d="M23238 17425 c-15 -30 -26 -55 -24 -55 8 0 57 91 54 100 -2 5 -15
-15 -30 -45z"/>
<path d="M23140 17268 c-19 -29 -36 -55 -39 -58 -19 -17 -63 -91 -57 -97 3 -4
10 -2 14 3 60 69 101 123 106 141 4 11 13 27 21 33 19 15 19 30 2 30 -8 0 -29
-24 -47 -52z"/>
<path d="M24883 17590 c0 -32 21 -41 31 -14 6 16 -9 44 -24 44 -3 0 -7 -13 -7
-30z"/>
<path d="M24870 17490 c0 -5 5 -10 10 -10 6 0 10 5 10 10 0 6 -4 10 -10 10 -5
0 -10 -4 -10 -10z"/>
<path d="M24352 17459 c-16 -19 -19 -29 -10 -29 7 0 21 14 30 30 22 38 10 38
-20 -1z"/>
<path d="M24288 17383 c-31 -34 -63 -83 -53 -83 10 0 65 57 65 68 0 5 7 12 15
16 16 6 21 26 7 26 -5 0 -20 -12 -34 -27z"/>
<path d="M24732 17013 c-46 -91 -92 -173 -128 -225 -13 -21 -21 -38 -17 -38
17 0 106 110 138 172 20 37 40 70 45 73 5 3 7 19 3 35 -3 19 -1 30 6 30 6 0
11 7 11 15 0 33 -21 11 -58 -62z"/>
<path d="M23645 16980 c-3 -6 -3 -20 1 -33 7 -21 7 -21 15 -2 4 11 8 26 8 33
1 14 -15 16 -24 2z"/>
<path d="M23600 16925 c0 -8 7 -15 15 -15 8 0 15 7 15 15 0 8 -7 15 -15 15 -8
0 -15 -7 -15 -15z"/>
<path d="M21055 17050 c3 -5 8 -10 11 -10 2 0 4 5 4 10 0 6 -5 10 -11 10 -5 0
-7 -4 -4 -10z"/>
<path d="M21126 16731 c-3 -5 3 -11 15 -14 16 -4 18 -3 8 9 -13 16 -16 17 -23
5z"/>
<path d="M20508 15283 c6 -2 18 -2 25 0 6 3 1 5 -13 5 -14 0 -19 -2 -12 -5z"/>
<path d="M20410 15245 c-16 -19 -3 -19 30 0 24 13 24 14 4 15 -12 0 -27 -7
-34 -15z"/>
<path d="M20331 15209 c-13 -5 -22 -12 -19 -14 6 -6 58 12 58 20 0 7 -11 5
-39 -6z"/>
<path d="M20265 15183 c-11 -2 -33 -10 -50 -18 -16 -8 -59 -25 -95 -39 -36
-14 -59 -26 -52 -26 10 0 157 54 217 80 21 9 13 11 -20 3z"/>
<path d="M20000 15081 c-14 -5 -34 -13 -45 -18 -28 -15 -62 -30 -120 -51 -27
-11 -51 -24 -53 -31 -5 -14 57 10 178 67 82 39 94 49 40 33z"/>
<path d="M18120 15959 c-109 -14 -292 -71 -336 -104 -21 -16 -20 -16 89 19 89
29 268 16 407 -29 88 -29 170 -134 170 -218 0 -49 -54 -165 -104 -224 -93
-108 -282 -173 -505 -173 -135 0 -180 10 -353 76 -96 36 -108 39 -108 25 0
-18 164 -108 325 -181 88 -39 180 -84 205 -99 25 -15 65 -38 90 -51 25 -13 78
-45 119 -72 41 -26 80 -48 86 -48 16 0 209 103 325 175 54 33 178 85 250 106
50 14 125 21 320 29 291 11 316 14 329 38 4 9 11 71 15 137 6 97 4 127 -8 157
-22 51 -62 81 -101 74 -27 -5 -37 0 -90 54 -136 138 -312 215 -665 291 -117
25 -337 34 -460 18z"/>
<path d="M17565 15688 c-41 -47 -92 -125 -119 -183 -16 -33 -33 -68 -37 -77
-5 -10 -9 -26 -9 -35 0 -10 36 43 79 117 44 74 88 150 100 168 23 37 15 43
-14 10z"/>
<path d="M19433 15163 c-21 -8 -15 -33 7 -33 11 0 23 -7 26 -15 10 -24 34 -18
34 8 0 16 -9 28 -25 35 -14 7 -27 12 -28 11 -1 0 -8 -3 -14 -6z"/>
<path d="M19325 15140 c3 -5 10 -10 16 -10 5 0 9 5 9 10 0 6 -7 10 -16 10 -8
0 -12 -4 -9 -10z"/>
<path d="M18885 15110 c-16 -5 -55 -15 -86 -23 -83 -21 -248 -90 -254 -106 -9
-23 4 -26 33 -9 15 9 43 19 62 23 19 4 41 11 50 16 29 17 165 62 205 68 27 4
41 12 43 24 4 18 -6 20 -53 7z"/>
<path d="M16042 15708 c-7 -7 -12 -22 -12 -35 0 -30 35 -31 50 -2 21 38 -9 66
-38 37z"/>
<path d="M17685 12832 c15 -15 116 -68 144 -75 39 -10 4 17 -49 37 -25 10 -47
21 -50 26 -3 4 -16 11 -30 15 -17 5 -22 4 -15 -3z"/>
<path d="M19075 14823 c-129 -13 -200 -32 -367 -99 -121 -48 -194 -92 -255
-153 -49 -49 -67 -100 -88 -259 -9 -59 -20 -138 -25 -177 -28 -190 -70 -1137
-56 -1249 l8 -58 51 6 c73 10 195 60 263 108 219 153 509 479 634 713 18 33
36 65 40 70 13 18 77 208 93 280 41 181 71 372 88 570 15 170 9 190 -63 217
-94 35 -192 44 -323 31z"/>
<path d="M19477 14236 c-4 -10 -7 -29 -7 -43 0 -30 -20 -104 -32 -117 -4 -6
-8 -18 -8 -29 0 -34 -119 -369 -161 -451 -47 -93 -126 -217 -171 -267 -10 -10
-18 -23 -18 -28 0 -5 -7 -11 -15 -15 -8 -3 -15 -12 -15 -21 0 -8 -4 -15 -9
-15 -10 0 -243 -232 -238 -237 14 -14 296 256 290 278 -2 4 7 11 18 14 12 4
18 13 15 20 -3 8 3 17 15 20 10 4 19 10 19 14 0 4 23 34 50 66 51 60 59 74
108 170 45 90 144 419 159 525 2 19 8 44 14 55 5 11 6 33 1 50 -7 24 -9 26
-15 11z"/>
<path d="M18750 12980 c-19 -16 -30 -30 -24 -30 5 0 23 14 39 30 36 38 30 38
-15 0z"/>
<path d="M18690 12930 c-9 -6 -10 -10 -3 -10 6 0 15 5 18 10 8 12 4 12 -15 0z"/>
<path d="M18312 12789 c-28 -11 -24 -33 6 -37 19 -3 102 32 102 43 0 9 -84 4
-108 -6z"/>
<path d="M16734 13982 c-14 -9 -84 -114 -84 -126 0 -14 45 31 76 75 25 37 30
66 8 51z"/>
<path d="M15220 26409 c0 -5 5 -7 10 -4 6 3 10 8 10 11 0 2 -4 4 -10 4 -5 0
-10 -5 -10 -11z"/>
<path d="M14975 25943 c-3 -15 -15 -33 -26 -41 -10 -7 -19 -22 -19 -34 0 -31
26 -6 50 50 23 51 23 52 11 52 -5 0 -12 -12 -16 -27z"/>
<path d="M14848 25878 c-7 -13 -11 -26 -10 -30 1 -5 -2 -8 -8 -8 -22 0 -283
-387 -407 -605 -25 -44 -69 -118 -98 -165 -47 -76 -69 -117 -110 -200 -7 -14
-25 -59 -40 -100 -15 -41 -39 -99 -53 -129 -14 -30 -25 -62 -25 -70 0 -9 -9
-23 -19 -33 -11 -9 -15 -19 -9 -22 5 -4 7 -16 4 -29 -3 -12 -7 -34 -10 -50 -3
-15 -9 -30 -14 -33 -5 -3 -9 -14 -9 -25 0 -17 3 -18 20 -9 11 6 20 17 20 25 0
7 11 27 25 43 14 17 25 35 25 42 0 6 9 19 20 28 11 10 50 76 86 147 76 151
175 324 276 480 39 61 85 137 102 170 17 33 42 75 55 93 13 18 39 63 58 100
20 37 43 76 53 87 21 25 60 93 60 106 0 23 -18 4 -64 -66 -27 -42 -54 -84 -60
-94 -6 -11 -42 -66 -80 -122 -38 -57 -90 -135 -116 -174 -26 -38 -71 -110
-101 -158 -30 -49 -69 -112 -86 -140 -18 -29 -51 -95 -74 -147 -86 -199 -109
-239 -109 -191 0 11 4 22 9 25 5 3 12 18 16 33 9 38 113 244 205 408 9 17 67
114 129 216 61 103 111 191 111 197 0 5 7 16 17 23 9 8 21 25 27 39 6 14 42
72 80 129 37 58 71 112 74 120 3 9 18 35 34 58 30 45 33 53 18 53 -5 0 -15
-10 -22 -22z"/>
<path d="M14890 25804 c0 -14 3 -14 15 -4 8 7 15 14 15 16 0 2 -7 4 -15 4 -8
0 -15 -7 -15 -16z"/>
<path d="M14852 25750 c-19 -31 -13 -47 8 -21 11 13 20 27 20 32 0 16 -15 10
-28 -11z"/>
<path d="M16691 22220 c-24 -17 -39 -30 -33 -30 16 0 82 41 82 51 0 12 1 13
-49 -21z"/>
<path d="M16608 22163 c7 -3 16 -2 19 1 4 3 -2 6 -13 5 -11 0 -14 -3 -6 -6z"/>
</g>
</svg>
